<svg width="14" height="14" viewBox="0 0 14 14" fill="none" xmlns="http://www.w3.org/2000/svg">
<path d="M11.0866 8.42764C11.0903 8.40954 11.1162 8.40954 11.1199 8.42764C11.312 9.36752 12.0465 10.102 12.9864 10.2941C13.0045 10.2978 13.0045 10.3237 12.9864 10.3274C12.0465 10.5195 11.312 11.254 11.1199 12.1939C11.1162 12.212 11.0903 12.212 11.0866 12.1939C10.8945 11.254 10.16 10.5195 9.22012 10.3274C9.20202 10.3237 9.20202 10.2978 9.22012 10.2941C10.16 10.102 10.8945 9.36752 11.0866 8.42764Z" stroke="black"/>
<path d="M8.98088 6.03219C9.016 5.86036 9.2615 5.86036 9.29662 6.03219C9.37419 6.41168 9.67076 6.70824 10.0502 6.78581C10.2221 6.82093 10.2221 7.06643 10.0502 7.10155C9.67076 7.17911 9.37419 7.47568 9.29662 7.85517C9.2615 8.02699 9.016 8.02699 8.98088 7.85517C8.90332 7.47568 8.60675 7.17911 8.22726 7.10155C8.05543 7.06643 8.05543 6.82093 8.22726 6.78581C8.60675 6.70824 8.90332 6.41168 8.98088 6.03219Z" fill="black" stroke="black" stroke-width="0.5"/>
<path d="M6.70476 1.93582L6.49523 1.48184L6.70476 1.93582ZM7.26352 1.67793L7.47305 2.13191V2.13191L7.26352 1.67793ZM8.76891 1.67793L8.97844 1.22395L8.97843 1.22395L8.76891 1.67793ZM9.32767 1.93582L9.11814 2.3898L9.32767 1.93582ZM7.31459 13.0564C7.59074 13.0564 7.81459 12.8326 7.81459 12.5564C7.81459 12.2803 7.59074 12.0564 7.31459 12.0564V13.0564ZM11.7259 6.94347C11.7259 7.21962 11.9498 7.44347 12.2259 7.44347C12.5021 7.44347 12.7259 7.21962 12.7259 6.94347H11.7259ZM7.82301 1.46109L7.90907 1.95363V1.95363L7.82301 1.46109ZM8.20942 1.46109L8.12337 1.95363H8.12337L8.20942 1.46109ZM9.52202 2.02029L9.35509 2.4916L9.35509 2.4916L9.52202 2.02029ZM10.373 1.98452L10.5394 2.45602L10.5394 2.45602L10.373 1.98452ZM10.1716 2.05056L10.294 2.53535L10.294 2.53535L10.1716 2.05056ZM10.9784 1.80159L10.9227 1.3047V1.3047L10.9784 1.80159ZM12.197 2.66377L11.7099 2.77665V2.77665L12.197 2.66377ZM5.65945 1.98452L5.82586 1.51303L5.82586 1.51303L5.65945 1.98452ZM5.86082 2.05056L5.73843 2.53535V2.53535L5.86082 2.05056ZM6.51041 2.02029L6.34347 1.54898L6.34347 1.54898L6.51041 2.02029ZM3.83547 2.66377L4.32256 2.77665L4.32256 2.77665L3.83547 2.66377ZM5.05407 1.80159L4.9984 2.29848V2.29848L5.05407 1.80159ZM6.05168 3.91765C5.77553 3.91765 5.55168 4.14151 5.55168 4.41765C5.55168 4.6938 5.77553 4.91765 6.05168 4.91765V3.91765ZM9.98076 4.91765C10.2569 4.91765 10.4808 4.6938 10.4808 4.41765C10.4808 4.14151 10.2569 3.91765 9.98076 3.91765V4.91765ZM6.05168 6.44347C5.77553 6.44347 5.55168 6.66733 5.55168 6.94347C5.55168 7.21962 5.77553 7.44347 6.05168 7.44347V6.44347ZM7.03395 7.44347C7.31009 7.44347 7.53395 7.21962 7.53395 6.94347C7.53395 6.66733 7.31009 6.44347 7.03395 6.44347V7.44347ZM1.80235 7.14423L2.0596 6.71549L1.80235 7.14423ZM3.05388 7.24451L2.86819 6.78028H2.86819L3.05388 7.24451ZM4.30649 6.94347V3.29552H3.30649V6.94347H4.30649ZM6.91429 2.3898L7.47305 2.13191L7.054 1.22395L6.49523 1.48184L6.91429 2.3898ZM8.55938 2.13191L9.11814 2.3898L9.5372 1.48184L8.97844 1.22395L8.55938 2.13191ZM7.31459 12.0564H2.40324V13.0564H7.31459V12.0564ZM11.7259 3.29552V6.94347H12.7259V3.29552H11.7259ZM7.47305 2.13191C7.77406 1.99298 7.84408 1.96498 7.90907 1.95363L7.73696 0.968546C7.51342 1.0076 7.30662 1.10736 7.054 1.22395L7.47305 2.13191ZM8.97843 1.22395C8.72581 1.10736 8.51901 1.0076 8.29547 0.968546L8.12337 1.95363C8.18835 1.96498 8.25837 1.99299 8.55938 2.13191L8.97843 1.22395ZM7.90907 1.95363C7.97996 1.94124 8.05247 1.94124 8.12337 1.95363L8.29547 0.968546C8.1107 0.936266 7.92173 0.936266 7.73696 0.968546L7.90907 1.95363ZM9.11814 2.3898C9.20693 2.43078 9.27964 2.46488 9.35509 2.4916L9.68896 1.54898C9.66698 1.5412 9.6426 1.53049 9.5372 1.48184L9.11814 2.3898ZM10.2066 1.51303C10.0971 1.55166 10.0718 1.56006 10.0492 1.56577L10.294 2.53535C10.3716 2.51576 10.4472 2.48856 10.5394 2.45602L10.2066 1.51303ZM9.35509 2.4916C9.65689 2.5985 9.98357 2.61372 10.294 2.53535L10.0492 1.56577C9.93011 1.59584 9.80476 1.59 9.68896 1.54898L9.35509 2.4916ZM10.5394 2.45602C10.8879 2.33302 10.9784 2.30472 11.034 2.29848L10.9227 1.3047C10.7232 1.32705 10.4951 1.41118 10.2066 1.51303L10.5394 2.45602ZM12.7259 3.29552C12.7259 2.9895 12.7294 2.74645 12.6841 2.55089L11.7099 2.77665C11.7225 2.8312 11.7259 2.92595 11.7259 3.29552H12.7259ZM11.034 2.29848C11.348 2.26331 11.6385 2.46887 11.7099 2.77665L12.6841 2.55089C12.4982 1.74876 11.741 1.21302 10.9227 1.3047L11.034 2.29848ZM5.49304 2.45602C5.58526 2.48856 5.66082 2.51575 5.73843 2.53535L5.98321 1.56577C5.96061 1.56006 5.93533 1.55166 5.82586 1.51303L5.49304 2.45602ZM6.49523 1.48184C6.38983 1.53049 6.36545 1.5412 6.34347 1.54898L6.67734 2.4916C6.75279 2.46488 6.8255 2.43078 6.91429 2.3898L6.49523 1.48184ZM5.73843 2.53535C6.04886 2.61372 6.37554 2.5985 6.67734 2.4916L6.34347 1.54898C6.22767 1.59 6.10232 1.59584 5.98321 1.56577L5.73843 2.53535ZM4.30649 3.29552C4.30649 2.92595 4.30992 2.8312 4.32256 2.77665L3.34837 2.55089C3.30306 2.74645 3.30649 2.9895 3.30649 3.29552H4.30649ZM5.82586 1.51303C5.53729 1.41118 5.30924 1.32705 5.10975 1.3047L4.9984 2.29848C5.05406 2.30472 5.14455 2.33302 5.49304 2.45602L5.82586 1.51303ZM4.32256 2.77665C4.39388 2.46887 4.68443 2.26331 4.9984 2.29848L5.10975 1.3047C4.29148 1.21302 3.53426 1.74876 3.34837 2.55089L4.32256 2.77665ZM6.05168 4.91765H9.98076V3.91765H6.05168V4.91765ZM6.05168 7.44347H7.03395V6.44347H6.05168V7.44347ZM3.30649 6.94347V11.1532H4.30649V6.94347H3.30649ZM1.5 11.1532V7.59851H0.5V11.1532H1.5ZM3.23957 7.70875L3.99218 7.40771L3.62079 6.47924L2.86819 6.78028L3.23957 7.70875ZM1.5451 7.57298C2.05768 7.88053 2.68456 7.93076 3.23957 7.70875L2.86819 6.78028C2.60334 6.88621 2.30419 6.86224 2.0596 6.71549L1.5451 7.57298ZM2.40324 12.0564C1.90439 12.0564 1.5 11.652 1.5 11.1532H0.5C0.5 12.2043 1.35211 13.0564 2.40324 13.0564V12.0564ZM3.30649 11.1532C3.30649 11.652 2.90209 12.0564 2.40324 12.0564V13.0564C3.45437 13.0564 4.30649 12.2043 4.30649 11.1532H3.30649ZM1.5 7.59851C1.5 7.58868 1.50212 7.58512 1.50309 7.58353C1.50488 7.58058 1.50869 7.57623 1.51511 7.5726C1.52152 7.56897 1.52721 7.56794 1.53066 7.56792C1.53252 7.56791 1.53667 7.56792 1.5451 7.57298L2.0596 6.71549C1.37323 6.30367 0.5 6.79807 0.5 7.59851H1.5Z" fill="black"/>
</svg>
