<svg width="34" height="34" viewBox="0 0 34 34" fill="none" xmlns="http://www.w3.org/2000/svg">
<circle cx="17" cy="17" r="17" fill="#C8FF00"/>
<path d="M14.1 14.2504C14.4667 13.8671 14.896 13.5627 15.388 13.3374C15.88 13.1121 16.4173 12.9997 17 13.0004C17.5827 13.0011 18.1203 13.1137 18.613 13.3384C19.1057 13.5631 19.5347 13.8671 19.9 14.2504L24.95 11.4254L17.975 7.55039C17.675 7.36706 17.35 7.27539 17 7.27539C16.65 7.27539 16.325 7.36706 16.025 7.55039L9.05 11.4254L14.1 14.2504ZM16 26.4504V20.8754C15.1333 20.6421 14.4167 20.1714 13.85 19.4634C13.2833 18.7554 13 17.9344 13 17.0004C13 16.8171 13.0083 16.6421 13.025 16.4754C13.0417 16.3087 13.075 16.1504 13.125 16.0004L8 13.1254V20.8254C8 21.1921 8.09167 21.5297 8.275 21.8384C8.45833 22.1471 8.70833 22.3927 9.025 22.5754L16 26.4504ZM17 19.0004C17.55 19.0004 18.021 18.8047 18.413 18.4134C18.805 18.0221 19.0007 17.5511 19 17.0004C18.9993 16.4497 18.8037 15.9791 18.413 15.5884C18.0223 15.1977 17.5513 15.0017 17 15.0004C16.4487 14.9991 15.978 15.1951 15.588 15.5884C15.198 15.9817 15.002 16.4524 15 17.0004C14.998 17.5484 15.194 18.0194 15.588 18.4134C15.982 18.8074 16.4527 19.0031 17 19.0004ZM18 26.4504L24.975 22.5754C25.2917 22.3921 25.5417 22.1464 25.725 21.8384C25.9083 21.5304 26 21.1924 26 20.8244V13.1244L20.875 16.0004C20.925 16.1671 20.9583 16.3297 20.975 16.4884C20.9917 16.6471 21 16.8177 21 17.0004C21 17.9337 20.7167 18.7547 20.15 19.4634C19.5833 20.1721 18.8667 20.6427 18 20.8754V26.4504Z" fill="black"/>
</svg>
