<svg width="18" height="18" viewBox="0 0 18 18" fill="none" xmlns="http://www.w3.org/2000/svg">
<path d="M6.1875 6C6.1875 5.85082 6.24676 5.70774 6.35225 5.60225C6.45774 5.49676 6.60082 5.4375 6.75 5.4375H12C12.1492 5.4375 12.2923 5.49676 12.3977 5.60225C12.5032 5.70774 12.5625 5.85082 12.5625 6C12.5625 6.14918 12.5032 6.29226 12.3977 6.39775C12.2923 6.50324 12.1492 6.5625 12 6.5625H6.75C6.60082 6.5625 6.45774 6.50324 6.35225 6.39775C6.24676 6.29226 6.1875 6.14918 6.1875 6ZM6.75 7.6875C6.60082 7.6875 6.45774 7.74676 6.35225 7.85225C6.24676 7.95774 6.1875 8.10082 6.1875 8.25C6.1875 8.39918 6.24676 8.54226 6.35225 8.64775C6.45774 8.75324 6.60082 8.8125 6.75 8.8125H10.5C10.6492 8.8125 10.7923 8.75324 10.8977 8.64775C11.0032 8.54226 11.0625 8.39918 11.0625 8.25C11.0625 8.10082 11.0032 7.95774 10.8977 7.85225C10.7923 7.74676 10.6492 7.6875 10.5 7.6875H6.75Z" fill="#98989F"/>
<path fill-rule="evenodd" clip-rule="evenodd" d="M6.375 2.4375C5.43017 2.4375 4.52403 2.81283 3.85593 3.48093C3.18783 4.14903 2.8125 5.05517 2.8125 6V13.5C2.8125 14.2459 3.10882 14.9613 3.63626 15.4887C4.16371 16.0162 4.87908 16.3125 5.625 16.3125H13.875C14.2231 16.3125 14.5569 16.1742 14.8031 15.9281C15.0492 15.6819 15.1875 15.3481 15.1875 15V3.75C15.1875 3.4019 15.0492 3.06806 14.8031 2.82192C14.5569 2.57578 14.2231 2.4375 13.875 2.4375H6.375ZM14.0625 10.6875V3.75C14.0625 3.70027 14.0427 3.65258 14.0076 3.61742C13.9724 3.58225 13.9247 3.5625 13.875 3.5625H6.375C5.72853 3.5625 5.10855 3.81931 4.65143 4.27643C4.19431 4.73355 3.9375 5.35353 3.9375 6V11.25C4.42382 10.8839 5.01628 10.6864 5.625 10.6875H14.0625ZM14.0625 11.8125H5.625C5.17745 11.8125 4.74823 11.9903 4.43176 12.3068C4.11529 12.6232 3.9375 13.0524 3.9375 13.5C3.9375 13.9476 4.11529 14.3768 4.43176 14.6932C4.74823 15.0097 5.17745 15.1875 5.625 15.1875H13.875C13.9247 15.1875 13.9724 15.1677 14.0076 15.1326C14.0427 15.0974 14.0625 15.0497 14.0625 15V11.8125Z" fill="#98989F"/>
</svg>
