<svg width="34" height="16" viewBox="0 0 34 16" fill="none" xmlns="http://www.w3.org/2000/svg">
    <path
        d="M5 4C4.73478 4 4.48043 4.10536 4.29289 4.29289C4.10536 4.48043 4 4.73478 4 5V11C4 11.2652 4.10536 11.5196 4.29289 11.7071C4.48043 11.8946 4.73478 12 5 12H7C7.26522 12 7.51957 11.8946 7.70711 11.7071C7.89464 11.5196 8 11.2652 8 11V5C8 4.73478 7.89464 4.48043 7.70711 4.29289C7.51957 4.10536 7.26522 4 7 4H5ZM0 4.5C0 3.30653 0.474106 2.16193 1.31802 1.31802C2.16193 0.474106 3.30653 0 4.5 0H27.5C28.6935 0 29.8381 0.474106 30.682 1.31802C31.5259 2.16193 32 3.30653 32 4.5V5H32.5C32.8978 5 33.2794 5.15804 33.5607 5.43934C33.842 5.72064 34 6.10218 34 6.5V9.5C34 9.89782 33.842 10.2794 33.5607 10.5607C33.2794 10.842 32.8978 11 32.5 11H32V11.5C32 12.6935 31.5259 13.8381 30.682 14.682C29.8381 15.5259 28.6935 16 27.5 16H4.5C3.30653 16 2.16193 15.5259 1.31802 14.682C0.474106 13.8381 0 12.6935 0 11.5V4.5ZM4.5 2C3.83696 2 3.20107 2.26339 2.73223 2.73223C2.26339 3.20107 2 3.83696 2 4.5V11.5C2 12.163 2.26339 12.7989 2.73223 13.2678C3.20107 13.7366 3.83696 14 4.5 14H27.5C28.163 14 28.7989 13.7366 29.2678 13.2678C29.7366 12.7989 30 12.163 30 11.5V4.5C30 3.83696 29.7366 3.20107 29.2678 2.73223C28.7989 2.26339 28.163 2 27.5 2H4.5Z"
        fill="#5C6068" />
    <path
        d="M9.29289 4.29289C9.48043 4.10536 9.73478 4 10 4H12C12.2652 4 12.5196 4.10536 12.7071 4.29289C12.8946 4.48043 13 4.73478 13 5V11C13 11.2652 12.8946 11.5196 12.7071 11.7071C12.5196 11.8946 12.2652 12 12 12H10C9.73478 12 9.48043 11.8946 9.29289 11.7071C9.10536 11.5196 9 11.2652 9 11V5C9 4.73478 9.10536 4.48043 9.29289 4.29289Z"
        fill="#5C6068" />
    <path
        d="M14.2929 4.29289C14.4804 4.10536 14.7348 4 15 4H17C17.2652 4 17.5196 4.10536 17.7071 4.29289C17.8946 4.48043 18 4.73478 18 5V11C18 11.2652 17.8946 11.5196 17.7071 11.7071C17.5196 11.8946 17.2652 12 17 12H15C14.7348 12 14.4804 11.8946 14.2929 11.7071C14.1054 11.5196 14 11.2652 14 11V5C14 4.73478 14.1054 4.48043 14.2929 4.29289Z"
        fill="#5C6068" />
    <path
        d="M19.2929 4.29289C19.4804 4.10536 19.7348 4 20 4H22C22.2652 4 22.5196 4.10536 22.7071 4.29289C22.8946 4.48043 23 4.73478 23 5V11C23 11.2652 22.8946 11.5196 22.7071 11.7071C22.5196 11.8946 22.2652 12 22 12H20C19.7348 12 19.4804 11.8946 19.2929 11.7071C19.1054 11.5196 19 11.2652 19 11V5C19 4.73478 19.1054 4.48043 19.2929 4.29289Z"
        fill="#5C6068" />
    <path
        d="M24.2929 4.29289C24.4804 4.10536 24.7348 4 25 4H27C27.2652 4 27.5196 4.10536 27.7071 4.29289C27.8946 4.48043 28 4.73478 28 5V11C28 11.2652 27.8946 11.5196 27.7071 11.7071C27.5196 11.8946 27.2652 12 27 12H25C24.7348 12 24.4804 11.8946 24.2929 11.7071C24.1054 11.5196 24 11.2652 24 11V5C24 4.73478 24.1054 4.48043 24.2929 4.29289Z"
        fill="#5C6068" />
</svg>