<svg width="16" height="16" viewBox="0 0 16 16" fill="none" xmlns="http://www.w3.org/2000/svg">
<path d="M9.18276 8.17988L9.0901 8.78633L7.99943 8.16038L6.9081 8.78633L6.81543 8.17988L8.0001 7.49023L9.18276 8.17988Z" fill="#459C6E"/>
<path d="M9.08526 11.5039L7.99926 11.8614L6.9126 11.5039L7.2326 10.9209L7.99926 11.2264L8.76593 10.9209L9.08526 11.5039Z" fill="#58C88D"/>
<path d="M7.99972 7.48896L9.18305 8.1799L11.9171 6.2689L11.3657 5.67545C10.6444 6.29811 9.72204 6.6546 8.75905 6.68295L7.99905 6.226L7.23972 6.6823C6.27674 6.65395 5.3544 6.29746 4.63305 5.6748L4.08105 6.26956L6.81572 8.18056L7.99972 7.48896Z" fill="#459C6E"/>
<path d="M11.3655 5.67538C10.6601 6.29418 9.70815 6.65688 8.75881 6.68288L7.99881 6.22723L7.23948 6.68223C6.29015 6.65623 5.33748 6.29418 4.63281 5.67473L5.70281 4.52163L6.72748 4.20703L7.99815 5.08128L9.26881 4.20703L10.2941 4.52163L11.3655 5.67538Z" fill="#58C88D"/>
<path d="M9.09069 8.78708L8.76602 10.9204L7.99936 11.2259L7.23269 10.9204L6.90869 8.78708L7.99936 8.16113L9.09069 8.78708Z" fill="#459C6E"/>
<path d="M9.9288 13.0571L9.12813 13.9177L7.99947 13.5797L6.8708 13.9177L6.0708 13.0571L6.91347 11.5029L8.00013 11.8604L9.08547 11.5029L9.9288 13.0571Z" fill="#295C41"/>
<path d="M9.12776 13.9171L8.91843 14.1459H7.08043L6.87109 13.9171L7.99909 13.5791L9.12776 13.9171Z" fill="#58C88D"/>
<path d="M6.28989 8.5004L4.63856 7.5332L4.30322 8.43475L5.36122 9.7172L5.88922 12.1437L6.61322 10.8417L6.28989 8.5004Z" fill="#459C6E"/>
<path d="M4.30397 8.43555L4.02197 9.1928L5.88997 12.1444L5.36197 9.71865L4.30397 8.43555Z" fill="#295C41"/>
<path d="M9.71005 8.5004L11.3614 7.5332L11.6967 8.43475L10.6387 9.7172L10.1107 12.1437L9.38672 10.8417L9.71005 8.5004Z" fill="#459C6E"/>
<path d="M11.6967 8.43476L11.9787 9.19201L10.1107 12.1437L10.6387 9.71786L11.6967 8.43476ZM1.23337 4.68946C1.26137 3.75996 3.04204 1.84961 3.04204 1.84961C2.26937 2.65106 1.39137 3.27831 0.744706 4.18311C0.565373 4.43336 0.452706 4.74861 0.509373 5.04306C0.61804 5.59881 1.10137 5.97776 1.90604 6.05056C2.32471 6.08826 3.56804 6.04146 3.56804 6.04146L4.22737 5.33101C3.48671 5.38106 1.20871 5.46751 1.23271 4.68946" fill="#295C41"/>
<path d="M2.61493 4.33099C2.31826 4.18799 2.10826 3.88639 2.2676 3.38654C2.4536 2.80024 2.6776 2.37254 3.04293 1.85059C3.04293 1.85059 1.26293 3.75964 1.2336 4.68979C1.20893 5.46784 3.48693 5.38139 4.22893 5.33264L4.99426 4.50844C3.97426 4.50844 3.3196 4.67354 2.61493 4.33099Z" fill="#58C88D"/>
<path d="M14.7668 4.68946C14.7388 3.75996 12.9588 1.84961 12.9588 1.84961C13.7321 2.65041 14.6094 3.27766 15.2561 4.18246C15.4354 4.43271 15.5481 4.74796 15.4914 5.04241C15.3828 5.59816 14.8994 5.97711 14.0948 6.04991C13.6761 6.08761 12.4328 6.04081 12.4328 6.04081L11.7734 5.33036C12.5141 5.38041 14.7921 5.46686 14.7681 4.68881" fill="#295C41"/>
<path d="M13.3854 4.33099C13.682 4.18799 13.892 3.88639 13.7334 3.38654C13.546 2.80024 13.3214 2.37254 12.956 1.85059C12.956 1.85059 14.736 3.75964 14.7654 4.68979C14.79 5.46784 12.512 5.38139 11.77 5.33264L11.0054 4.50844C12.026 4.50844 12.6807 4.67354 13.3854 4.33099Z" fill="#58C88D"/>
</svg>
