<svg width="16" height="16" viewBox="0 0 16 16" fill="none" xmlns="http://www.w3.org/2000/svg">
<path d="M11.3333 6.44499C11.3333 5.97344 11.146 5.5212 10.8125 5.18776C10.4791 4.85432 10.0269 4.66699 9.55531 4.66699H3.77798C3.54449 4.66699 3.31329 4.71298 3.09757 4.80233C2.88185 4.89169 2.68585 5.02265 2.52074 5.18776C2.35564 5.35286 2.22467 5.54886 2.13532 5.76458C2.04597 5.9803 1.99998 6.2115 1.99998 6.44499V12.2223C1.99998 12.4558 2.04597 12.687 2.13532 12.9027C2.22467 13.1185 2.35564 13.3145 2.52074 13.4796C2.68585 13.6447 2.88185 13.7756 3.09757 13.865C3.31329 13.9543 3.54449 14.0003 3.77798 14.0003H9.55531C9.7888 14.0003 10.02 13.9543 10.2357 13.865C10.4514 13.7756 10.6474 13.6447 10.8125 13.4796C10.9777 13.3145 11.1086 13.1185 11.198 12.9027C11.2873 12.687 11.3333 12.4558 11.3333 12.2223V6.44499Z" stroke="#5C6068" stroke-linecap="round" stroke-linejoin="round"/>
<path d="M13.3253 11.158C13.53 11.0417 13.7002 10.8733 13.8187 10.6699C13.9372 10.4665 13.9998 10.2354 14 10V3.33333C14 2.6 13.4 2 12.6667 2H6C5.5 2 5.228 2.25667 5 2.66667" stroke="#5C6068" stroke-linecap="round" stroke-linejoin="round"/>
</svg>
