<svg width="20" height="20" viewBox="0 0 20 20" fill="none" xmlns="http://www.w3.org/2000/svg">
<path fill-rule="evenodd" clip-rule="evenodd" d="M0 9.99994C0 4.51651 4.44521 0.0712891 9.92862 0.0712891C15.412 0.0712891 19.8572 4.51651 19.8572 9.99994C19.8572 15.4833 15.412 19.9285 9.92862 19.9285C4.44521 19.9285 0 15.4833 0 9.99994ZM14.2042 6.52832C14.018 7.05232 12.9631 7.57633 11.5359 7.57633C10.0466 7.57633 8.99168 7.05232 8.80552 6.52832C8.80552 5.8733 10.0466 5.4148 11.5359 5.4148C12.9631 5.4148 14.2042 5.8733 14.2042 6.52832ZM14.2042 11.1134C13.5836 11.5719 12.6528 11.8339 11.5359 11.8339C11.3497 11.8339 11.1015 11.8339 10.9153 11.7684V13.2094H11.5359C13.0252 13.2094 14.2042 12.8164 14.2042 12.2924V11.1134ZM10.9153 9.86887C11.1015 9.93437 11.3497 9.93437 11.5359 9.93437C12.6528 9.93437 13.5836 9.67237 14.2042 9.21386V10.3274C14.018 10.8514 12.9631 11.3754 11.5359 11.3754C11.4428 11.3754 11.3342 11.359 11.2256 11.3426L11.2256 11.3426C11.117 11.3263 11.0084 11.3099 10.9153 11.3099V9.86887ZM11.5359 8.03484C10.3569 8.03484 9.42606 7.70733 8.80552 7.31433V8.03484C10.0466 8.16584 11.1636 8.62435 11.2256 9.47586H11.4738C12.9011 9.47586 13.956 8.95185 14.1421 8.42785V7.31433C13.5836 7.70733 12.6528 8.03484 11.5359 8.03484ZM10.8533 9.47586C10.6671 9.99987 9.61222 10.5239 8.18499 10.5239C6.75775 10.5239 5.70284 10.0654 5.51668 9.47586C5.51668 8.88635 6.75775 8.42785 8.18499 8.36234C9.67427 8.36234 10.8533 8.88635 10.8533 9.47586ZM8.18499 12.6199C9.61222 12.6199 10.6671 12.0959 10.8533 11.5719V10.3929C10.2948 10.8514 9.364 11.1134 8.18499 11.1134C7.00597 11.1134 6.13722 10.8514 5.51668 10.3929V11.5719C5.70284 12.0959 6.75775 12.6199 8.18499 12.6199ZM5.51668 12.4889C6.07516 12.9474 7.06802 13.2094 8.18499 13.2094C9.364 13.2094 10.2948 12.8819 10.8533 12.4889V13.6679C10.8533 14.1919 9.61222 14.5849 8.18499 14.5849C6.75775 14.5849 5.51668 14.1919 5.51668 13.6679V12.4889Z" fill="#EDD777"/>
</svg>
