<svg width="14" height="14" viewBox="0 0 14 14" fill="none" xmlns="http://www.w3.org/2000/svg">
<path d="M12.25 9.34014C12.2501 9.47564 12.2187 9.6093 12.1583 9.7306C12.0979 9.85189 12.0102 9.9575 11.902 10.0391C11.7939 10.1207 11.6682 10.1761 11.535 10.2009C11.4018 10.2257 11.2646 10.2192 11.1344 10.1819L6.125 8.75039V2.62539L11.1344 1.19389C11.2646 1.15663 11.4018 1.15013 11.535 1.17491C11.6682 1.19969 11.7939 1.25506 11.902 1.33667C12.0102 1.41828 12.0979 1.52389 12.1583 1.64519C12.2187 1.76648 12.2501 1.90015 12.25 2.03564V9.34014ZM1.75 3.50039C1.75 3.26833 1.84219 3.04577 2.00628 2.88167C2.17038 2.71758 2.39294 2.62539 2.625 2.62539H6.125V8.75039H2.625C2.39294 8.75039 2.17038 8.65821 2.00628 8.49411C1.84219 8.33002 1.75 8.10746 1.75 7.87539V3.50039ZM6.125 10.0629L4.375 9.62539V13.1254H6.125V10.0629Z" fill="#5C6068"/>
</svg>
