<svg width="20" height="21" viewBox="0 0 20 21" fill="none" xmlns="http://www.w3.org/2000/svg">
<path d="M10.0687 0.634766C4.5458 0.634766 0.0686035 5.11196 0.0686035 10.6348C0.0686035 16.1576 4.5458 20.6348 10.0687 20.6348C15.5915 20.6348 20.0687 16.1576 20.0687 10.6348C20.0687 5.11196 15.5915 0.634766 10.0687 0.634766ZM6.52944 6.58415C6.62806 6.40188 6.76853 6.23796 6.93846 6.09525C7.25252 6.70967 8.01824 8.21182 8.20796 8.65034C8.68797 9.75731 8.33832 10.7374 7.24366 10.9787V10.979C6.72037 11.0933 6.28196 10.9417 5.94085 10.7153C6.1294 8.8042 6.15527 7.27362 6.52944 6.58415ZM14.6133 10.5675C13.7281 11.7346 12.0964 11.2237 11.4476 11.912C11.1361 12.2421 11.008 12.7445 10.9823 13.2913C11.6619 13.751 12.1478 14.4456 12.3466 15.2417C12.3852 15.3179 12.4037 15.4028 12.4002 15.4882C12.3967 15.5736 12.3714 15.6567 12.3267 15.7295C12.2819 15.8024 12.2193 15.8626 12.1447 15.9043C12.0702 15.9461 11.9861 15.968 11.9006 15.9681C11.8867 15.968 11.8727 15.9671 11.8589 15.9656H6.03459L6.02716 15.9584C5.86593 15.9832 5.70096 15.9601 5.55271 15.892C5.40447 15.8239 5.27947 15.7138 5.19322 15.5754C5.10694 15.4369 5.06321 15.2762 5.06745 15.1131C5.07169 14.95 5.12371 14.7917 5.21706 14.6579C5.39442 14.1074 5.57412 13.4096 5.70825 12.5671C5.7551 12.2695 5.7974 11.9711 5.83516 11.6722C6.26474 11.9023 6.83845 12.0218 7.56628 11.8011C8.80886 11.4254 9.61293 10.241 9.0932 8.78327C8.91232 8.27828 8.15751 6.71825 7.64281 5.67283C8.95531 5.10999 10.9105 5.18767 11.6728 5.90035C12.4251 6.6036 12.0325 7.2699 12.9438 7.73155C13.5014 8.01351 14.1554 8.01351 14.5801 7.97054C14.6401 7.96438 14.7007 7.97061 14.7582 7.98883C14.8157 8.00706 14.8688 8.0369 14.9143 8.0765C14.9598 8.1161 14.9966 8.16462 15.0226 8.21905C15.0486 8.27348 15.0631 8.33266 15.0652 8.39293C15.0876 8.99134 15.0492 9.99003 14.6133 10.5675Z" fill="#C8FF00"/>
</svg>
