<svg width="156" height="156" viewBox="0 0 156 156" fill="none" xmlns="http://www.w3.org/2000/svg">
<path d="M89.4827 63.3361C81.2027 63.3855 72.7942 63.0102 64.9291 60.8173C57.064 58.6244 50.108 54.5151 43.7843 49.7046C39.6443 46.5733 35.8797 44.0841 30.5046 44.4594C25.2482 44.7397 20.2216 46.7034 16.1677 50.0602C9.33021 55.987 10.3677 67.0996 13.0948 74.8933C17.2052 86.6085 29.7142 94.7578 40.336 100.062C52.6177 106.187 66.1049 109.752 79.6316 111.797C91.4885 113.605 106.705 114.909 116.981 107.174C126.417 100.062 129.006 83.8229 126.694 72.8683C126.133 69.6263 124.408 66.7003 121.842 64.64C115.212 59.7998 105.331 63.0398 97.8814 63.1978C95.1147 63.2571 92.3086 63.3262 89.4827 63.3361Z" fill="#272933"/>
<path d="M49.1099 25V29.2574" stroke="#4A5059" stroke-linecap="round" stroke-linejoin="round"/>
<path d="M46.9854 27.124H51.2341" stroke="#4A5059" stroke-linecap="round" stroke-linejoin="round"/>
<path d="M129.717 109.663V113.911" stroke="#4A5059" stroke-linecap="round" stroke-linejoin="round"/>
<path d="M127.593 111.788H131.841" stroke="#4A5059" stroke-linecap="round" stroke-linejoin="round"/>
<path d="M17.0074 91.3204C17.5422 91.3204 17.9757 90.8869 17.9757 90.3521C17.9757 89.8173 17.5422 89.3838 17.0074 89.3838C16.4726 89.3838 16.0391 89.8173 16.0391 90.3521C16.0391 90.8869 16.4726 91.3204 17.0074 91.3204Z" fill="#4A5059"/>
<path d="M99.4522 29.3966C99.987 29.3966 100.421 28.9631 100.421 28.4283C100.421 27.8935 99.987 27.46 99.4522 27.46C98.9174 27.46 98.4839 27.8935 98.4839 28.4283C98.4839 28.9631 98.9174 29.3966 99.4522 29.3966Z" fill="#4A5059"/>
<path d="M72.6163 131C92.6434 131 108.879 129.992 108.879 128.748C108.879 127.504 92.6434 126.496 72.6163 126.496C52.5892 126.496 36.354 127.504 36.354 128.748C36.354 129.992 52.5892 131 72.6163 131Z" fill="#272933"/>
<path d="M44.6835 36.5371H97.3479C98.6581 36.5371 99.9147 37.0575 100.841 37.9837C101.768 38.9099 102.288 40.1662 102.288 41.4761V104.112C102.288 105.422 101.768 106.678 100.841 107.604C99.9147 108.531 98.6581 109.051 97.3479 109.051H37.935C36.6247 109.051 35.3681 108.531 34.4416 107.604C33.5151 106.678 32.9946 105.422 32.9946 104.112V48.3412L44.6835 36.5371Z" fill="#4A5059" stroke="#4A5059" stroke-miterlimit="10"/>
<path d="M32.9946 48.3412H42.5691C42.8476 48.3412 43.1233 48.2862 43.3805 48.1794C43.6377 48.0725 43.8713 47.9159 44.0677 47.7186C44.2642 47.5213 44.4198 47.2871 44.5254 47.0295C44.6311 46.7718 44.6848 46.4959 44.6835 46.2175V36.5371L32.9946 48.3412Z" fill="#4A5059" stroke="#2D333E" stroke-miterlimit="10"/>
<path d="M106.646 77.5213C117.958 77.5213 127.129 68.3534 127.129 57.0443C127.129 45.7352 117.958 36.5674 106.646 36.5674C95.3335 36.5674 86.1631 45.7352 86.1631 57.0443C86.1631 68.3534 95.3335 77.5213 106.646 77.5213Z" fill="#2D333E" stroke="#4A5059" stroke-miterlimit="10"/>
<path d="M121.19 71.9004L126.644 77.3629" stroke="#4A5059" stroke-miterlimit="10"/>
<path d="M126.025 74.7166L124.332 76.4874C123.57 77.2839 123.599 78.547 124.395 79.3085L139.108 93.3695C139.905 94.131 141.169 94.1025 141.93 93.3059L143.624 91.5352C144.385 90.7386 144.357 89.4755 143.56 88.7141L128.847 74.6531C128.05 73.8916 126.787 73.92 126.025 74.7166Z" fill="#2D333E" stroke="#4A5059" stroke-miterlimit="10"/>
</svg>
