<svg width="11" height="12" viewBox="0 0 11 12" fill="none" xmlns="http://www.w3.org/2000/svg">
<path d="M0.789375 6.875C0.763938 6.94758 0.750635 7.02385 0.75 7.10075V9.72575C0.75 10.6926 2.90425 11.4757 5.5625 11.4757C8.22075 11.4757 10.375 10.6926 10.375 9.72575V7.10075C10.3744 7.02385 10.3611 6.94758 10.3356 6.875C10.0232 7.09375 9.65312 7.26875 9.26462 7.4105C8.275 7.77013 6.966 7.97575 5.5625 7.97575C4.159 7.97575 2.85 7.77013 1.86125 7.4105C1.482 7.27917 1.1214 7.09917 0.7885 6.875H0.789375ZM10.375 5.125V2.5C10.375 1.53312 8.22075 0.75 5.5625 0.75C2.90425 0.75 0.75 1.53312 0.75 2.5V5.125C0.75 6.09188 2.90425 6.875 5.5625 6.875C8.22075 6.875 10.375 6.09188 10.375 5.125ZM5.5625 3.375C3.38813 3.375 1.625 2.983 1.625 2.5C1.625 2.017 3.38813 1.625 5.5625 1.625C7.73688 1.625 9.5 2.017 9.5 2.5C9.5 2.983 7.73688 3.375 5.5625 3.375Z" fill="black"/>
</svg>
