<svg width="14" height="14" viewBox="0 0 14 14" fill="none" xmlns="http://www.w3.org/2000/svg">
<g clip-path="url(#clip0_440_2627)">
<path d="M7.875 4.52872V3.02162C7.875 2.31882 6.3077 1.74902 4.375 1.74902C2.4423 1.74902 0.875 2.31882 0.875 3.02162V4.93052C0.875 5.63402 2.4423 6.20382 4.375 6.20382C4.6949 6.20382 5.005 6.18772 5.299 6.15902C5.3949 5.81252 5.6161 5.54652 5.8296 5.36312C6.1159 5.11672 6.4785 4.93472 6.8516 4.79962C7.1582 4.68762 7.5026 4.59662 7.875 4.52732V4.52872ZM7.238 3.02162C7.238 3.37302 5.9556 3.65862 4.375 3.65862C2.793 3.65862 1.5106 3.37302 1.5106 3.02162C1.5106 2.67022 2.793 2.38532 4.3743 2.38532C5.9556 2.38532 7.238 2.66952 7.238 3.02162ZM5.25 10.3877V11.8122C5.25 12.2735 5.4768 12.6284 5.7239 12.8734C5.3088 12.9364 4.8531 12.9714 4.375 12.9714C2.4423 12.9714 0.875 12.4016 0.875 11.6988V9.78922C0.875 9.73322 0.8848 9.67839 0.9044 9.62472C1.1312 9.78292 1.4 9.91172 1.6835 10.0146C2.4031 10.2764 3.3551 10.4255 4.3757 10.4255C4.6753 10.4255 4.96673 10.4125 5.25 10.3877ZM6.5135 5.93922C6.7494 5.77332 7.0826 5.62842 7.4865 5.51502C8.078 5.34772 8.82 5.24972 9.625 5.24972C11.5577 5.24972 13.125 5.81952 13.125 6.52232V8.43122C13.125 9.13472 11.5577 9.70452 9.625 9.70452C7.6923 9.70452 6.125 9.13402 6.125 8.43122V6.52232C6.125 6.31232 6.265 6.11352 6.5135 5.93922ZM6.7606 6.52162C6.7606 6.87302 8.043 7.15862 9.6243 7.15862C11.2056 7.15862 12.488 6.87302 12.488 6.52162C12.488 6.17022 11.2063 5.88532 9.625 5.88532C8.0437 5.88532 6.7606 6.16952 6.7606 6.52162ZM5.25 6.96682V9.50992C4.96953 9.53606 4.67787 9.54936 4.375 9.54982C2.4423 9.54982 0.875 8.98002 0.875 8.27722V6.36832C0.875 6.31232 0.8848 6.25726 0.9044 6.20312C1.1312 6.36202 1.4 6.49012 1.6835 6.59302C2.4031 6.85482 3.3551 7.00392 4.3757 7.00392C4.6753 7.00392 4.96673 6.99156 5.25 6.96682ZM6.1544 9.70312C6.13517 9.75609 6.12523 9.81198 6.125 9.86832V11.7772C6.125 12.48 7.6923 13.0498 9.625 13.0498C11.5577 13.0498 13.125 12.48 13.125 11.7772V9.86832C13.1249 9.81225 13.1152 9.75661 13.0963 9.70382C12.8544 9.86608 12.5928 9.99687 12.3179 10.093C11.5983 10.3548 10.6463 10.5046 9.6257 10.5046C8.6051 10.5046 7.6531 10.3548 6.9335 10.093C6.65798 9.99742 6.39608 9.86635 6.1544 9.70312Z" fill="black"/>
<path fill-rule="evenodd" clip-rule="evenodd" d="M10.5001 0.700195H11.2001V1.6452L11.6551 2.1002H12.6001V2.8002H11.6551L11.2001 3.2552V4.2002H10.5001V3.2552L10.0451 2.8002H9.1001V2.1002H10.0451L10.5001 1.6452V0.700195Z" fill="black"/>
</g>
<defs>
<clipPath id="clip0_440_2627">
<rect width="14" height="14" fill="white"/>
</clipPath>
</defs>
</svg>
