<svg width="14" height="14" viewBox="0 0 14 14" fill="none" xmlns="http://www.w3.org/2000/svg">
<path d="M8.4939 12.6001C8.43964 12.6017 8.38594 12.5887 8.3385 12.5623C8.29213 12.5366 8.25402 12.4982 8.2286 12.4517C8.21742 12.4277 8.21122 12.4017 8.21038 12.3752C8.20954 12.3487 8.21407 12.3224 8.2237 12.2977C8.24403 12.2468 8.28347 12.2058 8.3336 12.1836C8.80855 11.9102 9.20661 11.521 9.4907 11.0524C9.7707 10.589 9.9219 10.0654 9.9317 9.53059C9.9394 8.64999 9.5572 7.31718 7.775 5.81288C7.7967 7.0537 7.47186 8.27597 6.837 9.34229C6.80288 9.38972 6.7557 9.42621 6.7012 9.44729C6.64542 9.46854 6.58483 9.47387 6.5262 9.46269C6.46953 9.45742 6.41604 9.43411 6.3736 9.39619C6.33208 9.3591 6.30443 9.30898 6.2952 9.25409C6.2209 8.73712 5.97862 8.25894 5.6057 7.89329C5.47393 8.23362 5.31814 8.56415 5.1395 8.88239C4.81681 9.38566 4.64059 9.96883 4.6306 10.5666C4.6306 11.1231 5.1899 11.7713 5.7317 12.1157C5.77378 12.1324 5.8102 12.1609 5.8367 12.1976C5.86325 12.233 5.87795 12.2758 5.8787 12.3201C5.87053 12.3861 5.83656 12.4463 5.7842 12.4874C5.72951 12.5288 5.66151 12.5488 5.5931 12.5434H5.5847C5.55354 12.5438 5.52246 12.54 5.4923 12.5322C3.3062 11.9316 2.1001 10.7073 2.1001 9.08609C2.1001 7.70989 2.8904 6.60109 3.7227 5.42859C4.62829 4.28224 5.31371 2.97808 5.7443 1.58208C5.75779 1.53987 5.78218 1.50196 5.815 1.47218C5.84895 1.44182 5.8898 1.42019 5.934 1.40918C5.98195 1.39761 6.03181 1.3963 6.08031 1.40535C6.12881 1.4144 6.17484 1.4336 6.2154 1.46168C10.1753 4.38419 12.1801 6.36519 12.1801 9.06229C12.1801 10.8354 10.6121 12.3558 8.5359 12.6001H8.4939Z" fill="black"/>
</svg>
