<svg width="12" height="12" viewBox="0 0 12 12" fill="none" xmlns="http://www.w3.org/2000/svg">
<mask id="mask0_490_15944" style="mask-type:luminance" maskUnits="userSpaceOnUse" x="0" y="0" width="12" height="12">
<path d="M12 0H0V12H12V0Z" fill="white"/>
</mask>
<g mask="url(#mask0_490_15944)">
<mask id="mask1_490_15944" style="mask-type:luminance" maskUnits="userSpaceOnUse" x="0" y="0" width="12" height="12">
<path d="M12 0H0V12H12V0Z" fill="white"/>
</mask>
<g mask="url(#mask1_490_15944)">
<path fill-rule="evenodd" clip-rule="evenodd" d="M6 0C2.6862 0 0 2.6862 0 6C0 9.3138 2.6862 12 6 12C9.3138 12 12 9.3138 12 6C12 2.6862 9.3138 0 6 0ZM3.8676 1.6986C3.02049 2.11996 2.31605 2.78121 1.842 3.6H3.2358C3.363 2.9862 3.5388 2.424 3.7548 1.938C3.7908 1.8564 3.8286 1.7766 3.8676 1.6986ZM1.2 6C1.2 5.586 1.2528 5.184 1.3512 4.8H3.0564C2.98007 5.59818 2.98007 6.40182 3.0564 7.2H1.3512C1.25049 6.80796 1.19968 6.40477 1.2 6ZM1.842 8.4C2.31605 9.21883 3.02049 9.88003 3.8676 10.3014C3.82822 10.2225 3.79061 10.1426 3.7548 10.062C3.5388 9.576 3.363 9.0138 3.2358 8.4H1.842ZM4.4652 8.4C4.569 8.8392 4.7004 9.2352 4.851 9.5748C5.0478 10.0176 5.2668 10.3386 5.4792 10.5408C5.6892 10.7406 5.8638 10.8 6 10.8C6.1362 10.8 6.3108 10.74 6.5202 10.5408C6.7332 10.3386 6.9522 10.0176 7.149 9.5748C7.2996 9.2352 7.431 8.8392 7.5348 8.4H4.4652ZM8.7642 8.4C8.65046 8.97077 8.47648 9.52792 8.2452 10.062C8.2092 10.1436 8.1714 10.2234 8.1324 10.3014C8.97951 9.88003 9.68391 9.21883 10.158 8.4H8.7642ZM10.6482 7.2H8.9436C9.01989 6.40182 9.01989 5.59818 8.9436 4.8H10.6488C10.7478 5.184 10.8 5.586 10.8 6C10.8 6.414 10.7472 6.816 10.6482 7.2ZM7.7376 7.2H4.2624C4.22042 6.80138 4.19959 6.40082 4.2 6C4.2 5.5842 4.2222 5.1828 4.2624 4.8H7.7376C7.7778 5.1828 7.8 5.5842 7.8 6C7.8 6.4158 7.7778 6.8172 7.7376 7.2ZM8.7636 3.6H10.158C9.68391 2.78121 8.97951 2.11996 8.1324 1.6986C8.1714 1.7766 8.2092 1.8564 8.2452 1.938C8.4612 2.424 8.6364 2.9862 8.7636 3.6ZM4.8516 2.4252C4.7004 2.7648 4.5696 3.1608 4.4652 3.6H7.5348C7.44242 3.19742 7.31328 2.80417 7.149 2.4252C6.9522 1.9824 6.7332 1.6614 6.5208 1.4592C6.3108 1.2594 6.1356 1.2 6 1.2C5.8638 1.2 5.6892 1.26 5.4792 1.4592C5.2668 1.6614 5.0484 1.9824 4.8516 2.4252Z" fill="#5C6068"/>
</g>
</g>
</svg>
