<svg width="20" height="20" viewBox="0 0 20 20" fill="none" xmlns="http://www.w3.org/2000/svg">
<path fill-rule="evenodd" clip-rule="evenodd" d="M9.99676 0.0712891C4.51334 0.0712891 0.0681152 4.51651 0.0681152 9.99995C0.0681152 15.4833 4.51334 19.9285 9.99676 19.9285C15.4802 19.9285 19.9254 15.4833 19.9254 9.99995C19.9254 4.51651 15.4802 0.0712891 9.99676 0.0712891ZM9.96511 11.576C7.82426 11.576 6.01791 11.9258 6.01791 13.276C6.01791 14.6266 7.83593 14.9642 9.96511 14.9642C12.106 14.9642 13.9123 14.6143 13.9123 13.2642C13.9123 11.9135 12.0943 11.576 9.96511 11.576ZM12.5771 7.66264C12.5771 9.12062 11.4147 10.2897 9.96508 10.2897C8.51544 10.2897 7.35306 9.12062 7.35306 7.66264C7.35306 6.2041 8.51544 5.03559 9.96508 5.03559C11.4147 5.03559 12.5771 6.2041 12.5771 7.66264ZM15.6361 8.27433C16.0112 6.79902 14.9116 5.47404 13.5114 5.47404C13.3591 5.47404 13.2136 5.49081 13.0713 5.51931C13.0524 5.52378 13.0313 5.53328 13.0202 5.55004C13.0074 5.57128 13.0169 5.59978 13.0308 5.61822C13.4514 6.2117 13.6931 6.93426 13.6931 7.70991C13.6931 8.45316 13.4714 9.1461 13.0824 9.72114C13.0424 9.78037 13.078 9.86029 13.1486 9.87258C13.2463 9.8899 13.3464 9.89885 13.4486 9.90164C14.4682 9.92846 15.3833 9.26849 15.6361 8.27433ZM15.3819 10.939C16.067 11.0736 16.5176 11.348 16.7043 11.7481C16.8621 12.0762 16.8621 12.4567 16.7043 12.7842C16.4187 13.404 15.498 13.6029 15.1402 13.6543C15.0663 13.6655 15.0068 13.6012 15.0146 13.5269C15.1974 11.8096 13.7433 10.9954 13.3672 10.8082C13.351 10.7998 13.3477 10.7864 13.3494 10.7786C13.3505 10.773 13.3572 10.7646 13.3694 10.7629C14.1834 10.7478 15.0585 10.8596 15.3819 10.939ZM6.92186 5.51932C6.78017 5.49026 6.63404 5.47406 6.4818 5.47406C5.08161 5.47406 3.98202 6.79904 4.35763 8.27435C4.60988 9.2685 5.52501 9.92848 6.54459 9.90166C6.64682 9.89886 6.74739 9.88936 6.84463 9.8726C6.91519 9.8603 6.95075 9.78039 6.91075 9.72115C6.52181 9.14556 6.30011 8.45317 6.30011 7.70993C6.30011 6.93372 6.54237 6.21115 6.96298 5.61823C6.97631 5.59979 6.98631 5.57129 6.97298 5.55006C6.96187 5.53273 6.94131 5.52379 6.92186 5.51932ZM3.28957 11.7477C3.47626 11.3476 3.92632 11.0732 4.61141 10.9386C4.93535 10.8592 5.80991 10.7474 6.62446 10.7631C6.63669 10.7642 6.6428 10.7726 6.64391 10.7782C6.64558 10.7865 6.64224 10.7994 6.62668 10.8083C6.24997 10.9956 4.79588 11.8098 4.97868 13.5265C4.98646 13.6014 4.92757 13.6651 4.85367 13.6539C4.49584 13.603 3.57516 13.4035 3.28957 12.7844C3.13121 12.4563 3.13121 12.0758 3.28957 11.7477Z" fill="#C277ED"/>
</svg>
