<svg width="20" height="20" viewBox="0 0 20 20" fill="none" xmlns="http://www.w3.org/2000/svg">
<path fill-rule="evenodd" clip-rule="evenodd" d="M9.99676 0.0712891C4.51334 0.0712891 0.0681152 4.51651 0.0681152 9.99995C0.0681152 15.4833 4.51334 19.9285 9.99676 19.9285C15.4802 19.9285 19.9254 15.4833 19.9254 9.99995C19.9254 4.51651 15.4802 0.0712891 9.99676 0.0712891ZM9.99671 4.66782C10.1274 4.66782 10.2568 4.69356 10.3775 4.74357C10.4983 4.79358 10.608 4.86688 10.7004 4.95929C10.7928 5.0517 10.8661 5.1614 10.9161 5.28214C10.9661 5.40288 10.9919 5.53228 10.9919 5.66297C10.9919 6.03117 10.7928 6.3546 10.4943 6.52377V7.15569H10.9919C11.9156 7.15569 12.8015 7.52265 13.4547 8.17585C14.1079 8.82904 14.4749 9.71496 14.4749 10.6387H14.9725C15.1044 10.6387 15.231 10.6911 15.3243 10.7845C15.4176 10.8778 15.47 11.0043 15.47 11.1363V12.629C15.47 12.761 15.4176 12.8876 15.3243 12.9809C15.231 13.0742 15.1044 13.1266 14.9725 13.1266H14.4749V13.6242C14.4749 13.7549 14.4491 13.8843 14.3991 14.005C14.3491 14.1257 14.2758 14.2354 14.1834 14.3279C14.091 14.4203 13.9813 14.4936 13.8606 14.5436C13.7398 14.5936 13.6104 14.6193 13.4797 14.6193H6.51368C6.383 14.6193 6.25359 14.5936 6.13285 14.5436C6.01212 14.4936 5.90241 14.4203 5.81 14.3279C5.71759 14.2354 5.64429 14.1257 5.59428 14.005C5.54427 13.8843 5.51853 13.7549 5.51853 13.6242V13.1266H5.02095C4.88899 13.1266 4.76243 13.0742 4.66912 12.9809C4.5758 12.8876 4.52338 12.761 4.52338 12.629V11.1363C4.52338 11.0043 4.5758 10.8778 4.66912 10.7845C4.76243 10.6911 4.88899 10.6387 5.02095 10.6387H5.51853C5.51853 9.71496 5.88549 8.82904 6.53869 8.17585C7.19188 7.52265 8.0778 7.15569 9.00156 7.15569H9.49913V6.52377C9.20059 6.3546 9.00156 6.03117 9.00156 5.66297C9.00156 5.53228 9.0273 5.40288 9.07731 5.28214C9.12732 5.1614 9.20062 5.0517 9.29303 4.95929C9.38544 4.86688 9.49514 4.79358 9.61588 4.74357C9.73662 4.69356 9.86602 4.66782 9.99671 4.66782ZM7.75762 10.1411C7.42771 10.1411 7.11131 10.2722 6.87802 10.5055C6.64474 10.7388 6.51368 11.0552 6.51368 11.3851C6.51368 11.715 6.64474 12.0314 6.87802 12.2647C7.11131 12.498 7.42771 12.629 7.75762 12.629C8.08753 12.629 8.40393 12.498 8.63722 12.2647C8.8705 12.0314 9.00156 11.715 9.00156 11.3851C9.00156 11.0552 8.8705 10.7388 8.63722 10.5055C8.40393 10.2722 8.08753 10.1411 7.75762 10.1411ZM12.2358 10.1411C11.9059 10.1411 11.5895 10.2722 11.3562 10.5055C11.1229 10.7388 10.9919 11.0552 10.9919 11.3851C10.9919 11.715 11.1229 12.0314 11.3562 12.2647C11.5895 12.498 11.9059 12.629 12.2358 12.629C12.5657 12.629 12.8821 12.498 13.1154 12.2647C13.3487 12.0314 13.4797 11.715 13.4797 11.3851C13.4797 11.0552 13.3487 10.7388 13.1154 10.5055C12.8821 10.2722 12.5657 10.1411 12.2358 10.1411Z" fill="#8979FF"/>
</svg>
