<svg width="14" height="14" viewBox="0 0 14 14" fill="none" xmlns="http://www.w3.org/2000/svg">
<path d="M9.90238 10.4998C10.8421 9.8763 11.5562 8.96678 11.9387 7.90586C12.3213 6.84494 12.352 5.68903 12.0264 4.60927C11.7008 3.52951 11.0362 2.5833 10.1309 1.91073C9.22559 1.23817 8.12779 0.875 7 0.875C5.87222 0.875 4.77441 1.23817 3.86911 1.91073C2.96382 2.5833 2.29917 3.52951 1.97356 4.60927C1.64796 5.68903 1.67871 6.84494 2.06127 7.90586C2.44383 8.96678 3.15785 9.8763 4.09763 10.4998H4.0845V12.5412H9.91725V10.4998H9.90238ZM9.91725 12.5412H4.0845V12.8334C4.0845 13.0655 4.17669 13.288 4.34078 13.4521C4.50488 13.6162 4.72744 13.7084 4.9595 13.7084H9.04225C9.27431 13.7084 9.49687 13.6162 9.66097 13.4521C9.82506 13.288 9.91725 13.0655 9.91725 12.8334V12.5412Z" fill="black"/>
</svg>
