<svg width="20" height="20" viewBox="0 0 20 20" fill="none" xmlns="http://www.w3.org/2000/svg">
<path d="M10 0C4.47719 0 0 4.47719 0 10.0001C0 15.5229 4.47719 20 10 20C15.5229 20 20 15.5229 20 10.0001C20.0001 4.47719 15.5229 0 10 0Z" fill="#9EDDF8"/>
<path d="M10.001 15.0005C7.239 15.0005 5 12.7615 5 10C5 9.83102 5.00833 9.66419 5.025 9.49952H6V10.4995H6.5V10.9995H10V10.4995H11V10.9995H14.5V10.4995H14.977C14.726 13.027 12.594 15.0005 10.001 15.0005ZM14.002 6.99952H5.9995C6.46507 6.37796 7.06915 5.87351 7.76377 5.52625C8.45839 5.17898 9.22441 4.99846 10.001 4.99902C10.7775 4.99854 11.5434 5.1791 12.238 5.52636C12.9325 5.87362 13.5365 6.37803 14.002 6.99952ZM7.705 11.829C7.62692 11.8906 7.57647 11.9806 7.56475 12.0793C7.55303 12.1781 7.58099 12.2774 7.6425 12.3555C7.92307 12.7127 8.2812 13.0014 8.68981 13.1998C9.09841 13.3982 9.54679 13.501 10.001 13.5005C10.4545 13.501 10.9023 13.3984 11.3104 13.2006C11.7185 13.0028 12.0764 12.7148 12.357 12.3585C12.3875 12.3199 12.4102 12.2756 12.4236 12.2282C12.437 12.1808 12.441 12.1313 12.4352 12.0824C12.4295 12.0334 12.4142 11.9861 12.3902 11.9431C12.3661 11.9002 12.3339 11.8623 12.2952 11.8318C12.2566 11.8012 12.2123 11.7786 12.1649 11.7652C12.1176 11.7518 12.068 11.7478 12.0191 11.7536C11.9702 11.7593 11.9229 11.7746 11.8799 11.7986C11.8369 11.8226 11.799 11.8549 11.7685 11.8935C11.5578 12.1608 11.2891 12.3769 10.9828 12.5253C10.6764 12.6738 10.3404 12.7508 10 12.7505C9.65928 12.751 9.32293 12.6739 9.01644 12.525C8.70995 12.3762 8.44135 12.1596 8.231 11.8915C8.16946 11.8134 8.07942 11.763 7.98069 11.7513C7.88196 11.7396 7.78312 11.7675 7.705 11.829ZM5.5 7.49952H15V8.99952H14.5V9.99952H14V10.4995H11.5V9.99952H11V8.99952H10V9.99952H9.5V10.4995H7V9.99952H6.5V8.99952H6V8.49952H5V7.99952H5.5V7.49952ZM4.5 8.99952V8.49952H5V8.99952H4.5ZM4.5 8.99952H4V9.99952H4.5V8.99952ZM7.5 8.49952H7V8.99952H7.5V9.49952H8V8.99952H7.5V8.49952ZM12 8.49952H11.5V8.99952H12V9.49952H12.5V8.99952H12V8.49952Z" fill="black"/>
</svg>
