<svg width="16" height="20" viewBox="0 0 16 20" fill="none" xmlns="http://www.w3.org/2000/svg">
<path d="M10.2652 0.639C10.245 0.671259 10.2266 0.704647 10.2102 0.739C10.0638 1.01086 9.87892 1.26011 9.66118 1.479C9.46703 1.66737 9.25428 1.83557 9.02618 1.981L8.95818 2.021L8.91818 2.153L8.82118 2.466C8.75518 2.674 8.75218 2.692 8.79118 2.68C8.91118 2.641 9.18118 2.569 9.25818 2.55C9.35618 2.53 9.59118 2.498 9.75718 2.483L9.85018 2.474L9.88218 2.368C9.94418 2.162 10.0612 1.721 10.1122 1.506C10.1922 1.162 10.2832 0.639 10.2652 0.639ZM12.0672 5.816C12.0378 5.72486 12.0051 5.6348 11.9692 5.546C11.916 5.48448 11.8567 5.42853 11.7922 5.379L11.4222 5.073C11.1242 4.82 10.9962 4.748 10.8302 4.736C10.7728 4.73104 10.7151 4.74032 10.6622 4.763C10.6073 4.78494 10.5544 4.81171 10.5042 4.843C10.4362 4.891 10.3702 4.955 10.3702 4.979C10.3888 5.029 10.4102 5.07833 10.4342 5.127C10.5142 5.315 10.5812 5.50833 10.6352 5.707C10.6752 5.847 10.7362 5.895 11.0352 6.021C11.3352 6.148 11.3812 6.164 11.4832 6.184C11.6165 6.20533 11.7498 6.20667 11.8832 6.188C11.9647 6.16599 12.0416 6.1294 12.1102 6.08L12.1452 6.051L12.0672 5.816ZM12.0672 5.816C12.0378 5.72486 12.0051 5.6348 11.9692 5.546C11.916 5.48448 11.8567 5.42853 11.7922 5.379L11.4222 5.073C11.1242 4.82 10.9962 4.748 10.8302 4.736C10.7728 4.73104 10.7151 4.74032 10.6622 4.763C10.6073 4.78494 10.5544 4.81171 10.5042 4.843C10.4362 4.891 10.3702 4.955 10.3702 4.979C10.3888 5.029 10.4102 5.07833 10.4342 5.127C10.5142 5.315 10.5812 5.50833 10.6352 5.707C10.6752 5.847 10.7362 5.895 11.0352 6.021C11.3352 6.148 11.3812 6.164 11.4832 6.184C11.6165 6.20533 11.7498 6.20667 11.8832 6.188C11.9647 6.16599 12.0416 6.1294 12.1102 6.08L12.1452 6.051L12.0672 5.816ZM12.0672 5.816C12.0378 5.72486 12.0051 5.6348 11.9692 5.546C11.916 5.48448 11.8567 5.42853 11.7922 5.379L11.4222 5.073C11.1242 4.82 10.9962 4.748 10.8302 4.736C10.7728 4.73104 10.7151 4.74032 10.6622 4.763C10.6073 4.78494 10.5544 4.81171 10.5042 4.843C10.4362 4.891 10.3702 4.955 10.3702 4.979C10.3888 5.029 10.4102 5.07833 10.4342 5.127C10.5142 5.315 10.5812 5.50833 10.6352 5.707C10.6752 5.847 10.7362 5.895 11.0352 6.021C11.3352 6.148 11.3812 6.164 11.4832 6.184C11.6165 6.20533 11.7498 6.20667 11.8832 6.188C11.9647 6.16599 12.0416 6.1294 12.1102 6.08L12.1452 6.051L12.0672 5.816ZM12.0672 5.816C12.0378 5.72486 12.0051 5.6348 11.9692 5.546C11.916 5.48448 11.8567 5.42853 11.7922 5.379L11.4222 5.073C11.1242 4.82 10.9962 4.748 10.8302 4.736C10.7728 4.73104 10.7151 4.74032 10.6622 4.763C10.6073 4.78494 10.5544 4.81171 10.5042 4.843C10.4362 4.891 10.3702 4.955 10.3702 4.979C10.3888 5.029 10.4102 5.07833 10.4342 5.127C10.5142 5.315 10.5812 5.50833 10.6352 5.707C10.6752 5.847 10.7362 5.895 11.0352 6.021C11.3352 6.148 11.3812 6.164 11.4832 6.184C11.6165 6.20533 11.7498 6.20667 11.8832 6.188C11.9647 6.16599 12.0416 6.1294 12.1102 6.08L12.1452 6.051L12.0672 5.816ZM12.0672 5.816C12.0378 5.72486 12.0051 5.6348 11.9692 5.546C11.916 5.48448 11.8567 5.42853 11.7922 5.379L11.4222 5.073C11.1242 4.82 10.9962 4.748 10.8302 4.736C10.7728 4.73104 10.7151 4.74032 10.6622 4.763C10.6073 4.78494 10.5544 4.81171 10.5042 4.843C10.4362 4.891 10.3702 4.955 10.3702 4.979C10.3888 5.029 10.4102 5.07833 10.4342 5.127C10.5142 5.315 10.5812 5.50833 10.6352 5.707C10.6752 5.847 10.7362 5.895 11.0352 6.021C11.3352 6.148 11.3812 6.164 11.4832 6.184C11.6165 6.20533 11.7498 6.20667 11.8832 6.188C11.9647 6.16599 12.0416 6.1294 12.1102 6.08L12.1452 6.051L12.0672 5.816ZM12.0672 5.816C12.0378 5.72486 12.0051 5.6348 11.9692 5.546C11.916 5.48448 11.8567 5.42853 11.7922 5.379L11.4222 5.073C11.1242 4.82 10.9962 4.748 10.8302 4.736C10.7728 4.73104 10.7151 4.74032 10.6622 4.763C10.6073 4.78494 10.5544 4.81171 10.5042 4.843C10.4362 4.891 10.3702 4.955 10.3702 4.979C10.3888 5.029 10.4102 5.07833 10.4342 5.127C10.5142 5.315 10.5812 5.50833 10.6352 5.707C10.6752 5.847 10.7362 5.895 11.0352 6.021C11.3352 6.148 11.3812 6.164 11.4832 6.184C11.6165 6.20533 11.7498 6.20667 11.8832 6.188C11.9647 6.16599 12.0416 6.1294 12.1102 6.08L12.1452 6.051L12.0672 5.816ZM12.0672 5.816C12.0378 5.72486 12.0051 5.6348 11.9692 5.546C11.916 5.48448 11.8567 5.42853 11.7922 5.379L11.4222 5.073C11.1242 4.82 10.9962 4.748 10.8302 4.736C10.7728 4.73104 10.7151 4.74032 10.6622 4.763C10.6073 4.78494 10.5544 4.81171 10.5042 4.843C10.4362 4.891 10.3702 4.955 10.3702 4.979C10.3888 5.029 10.4102 5.07833 10.4342 5.127C10.5142 5.315 10.5812 5.50833 10.6352 5.707C10.6752 5.847 10.7362 5.895 11.0352 6.021C11.3352 6.148 11.3812 6.164 11.4832 6.184C11.6165 6.20533 11.7498 6.20667 11.8832 6.188C11.9647 6.16599 12.0416 6.1294 12.1102 6.08L12.1452 6.051L12.0672 5.816ZM12.0672 5.816C12.0378 5.72486 12.0051 5.6348 11.9692 5.546C11.916 5.48448 11.8567 5.42853 11.7922 5.379L11.4222 5.073C11.1242 4.82 10.9962 4.748 10.8302 4.736C10.7728 4.73104 10.7151 4.74032 10.6622 4.763C10.6073 4.78494 10.5544 4.81171 10.5042 4.843C10.4362 4.891 10.3702 4.955 10.3702 4.979C10.3888 5.029 10.4102 5.07833 10.4342 5.127C10.5142 5.315 10.5812 5.50833 10.6352 5.707C10.6752 5.847 10.7362 5.895 11.0352 6.021C11.3352 6.148 11.3812 6.164 11.4832 6.184C11.6165 6.20533 11.7498 6.20667 11.8832 6.188C11.9647 6.16599 12.0416 6.1294 12.1102 6.08L12.1452 6.051L12.0672 5.816ZM12.0672 5.816C12.0378 5.72486 12.0051 5.6348 11.9692 5.546C11.916 5.48448 11.8567 5.42853 11.7922 5.379L11.4222 5.073C11.1242 4.82 10.9962 4.748 10.8302 4.736C10.7728 4.73104 10.7151 4.74032 10.6622 4.763C10.6073 4.78494 10.5544 4.81171 10.5042 4.843C10.4362 4.891 10.3702 4.955 10.3702 4.979C10.3888 5.029 10.4102 5.07833 10.4342 5.127C10.5142 5.315 10.5812 5.50833 10.6352 5.707C10.6752 5.847 10.7362 5.895 11.0352 6.021C11.3352 6.148 11.3812 6.164 11.4832 6.184C11.6165 6.20533 11.7498 6.20667 11.8832 6.188C11.9647 6.16599 12.0416 6.1294 12.1102 6.08L12.1452 6.051L12.0672 5.816ZM12.0672 5.816C12.0378 5.72486 12.0051 5.6348 11.9692 5.546C11.916 5.48448 11.8567 5.42853 11.7922 5.379L11.4222 5.073C11.1242 4.82 10.9962 4.748 10.8302 4.736C10.7728 4.73104 10.7151 4.74032 10.6622 4.763C10.6073 4.78494 10.5544 4.81171 10.5042 4.843C10.4362 4.891 10.3702 4.955 10.3702 4.979C10.3888 5.029 10.4102 5.07833 10.4342 5.127C10.5142 5.315 10.5812 5.50833 10.6352 5.707C10.6752 5.847 10.7362 5.895 11.0352 6.021C11.3352 6.148 11.3812 6.164 11.4832 6.184C11.6165 6.20533 11.7498 6.20667 11.8832 6.188C11.9647 6.16599 12.0416 6.1294 12.1102 6.08L12.1452 6.051L12.0672 5.816ZM12.0672 5.816C12.0378 5.72486 12.0051 5.6348 11.9692 5.546C11.916 5.48448 11.8567 5.42853 11.7922 5.379L11.4222 5.073C11.1242 4.82 10.9962 4.748 10.8302 4.736C10.7728 4.73104 10.7151 4.74032 10.6622 4.763C10.6073 4.78494 10.5544 4.81171 10.5042 4.843C10.4362 4.891 10.3702 4.955 10.3702 4.979C10.3888 5.029 10.4102 5.07833 10.4342 5.127C10.5142 5.315 10.5812 5.50833 10.6352 5.707C10.6752 5.847 10.7362 5.895 11.0352 6.021C11.3352 6.148 11.3812 6.164 11.4832 6.184C11.6165 6.20533 11.7498 6.20667 11.8832 6.188C11.9647 6.16599 12.0416 6.1294 12.1102 6.08L12.1452 6.051L12.0672 5.816ZM12.0672 5.816C12.0378 5.72486 12.0051 5.6348 11.9692 5.546C11.916 5.48448 11.8567 5.42853 11.7922 5.379L11.4222 5.073C11.1242 4.82 10.9962 4.748 10.8302 4.736C10.7728 4.73104 10.7151 4.74032 10.6622 4.763C10.6073 4.78494 10.5544 4.81171 10.5042 4.843C10.4362 4.891 10.3702 4.955 10.3702 4.979C10.3888 5.029 10.4102 5.07833 10.4342 5.127C10.5142 5.315 10.5812 5.50833 10.6352 5.707C10.6752 5.847 10.7362 5.895 11.0352 6.021C11.3352 6.148 11.3812 6.164 11.4832 6.184C11.6165 6.20533 11.7498 6.20667 11.8832 6.188C11.9647 6.16599 12.0416 6.1294 12.1102 6.08L12.1452 6.051L12.0672 5.816ZM12.0672 5.816C12.0378 5.72486 12.0051 5.6348 11.9692 5.546C11.916 5.48448 11.8567 5.42853 11.7922 5.379L11.4222 5.073C11.1242 4.82 10.9962 4.748 10.8302 4.736C10.7728 4.73104 10.7151 4.74032 10.6622 4.763C10.6073 4.78494 10.5544 4.81171 10.5042 4.843C10.4362 4.891 10.3702 4.955 10.3702 4.979C10.3888 5.029 10.4102 5.07833 10.4342 5.127C10.5142 5.315 10.5812 5.50833 10.6352 5.707C10.6752 5.847 10.7362 5.895 11.0352 6.021C11.3352 6.148 11.3812 6.164 11.4832 6.184C11.6165 6.20533 11.7498 6.20667 11.8832 6.188C11.9647 6.16599 12.0416 6.1294 12.1102 6.08L12.1452 6.051L12.0672 5.816ZM12.0672 5.816C12.0378 5.72486 12.0051 5.6348 11.9692 5.546C11.916 5.48448 11.8567 5.42853 11.7922 5.379L11.4222 5.073C11.1242 4.82 10.9962 4.748 10.8302 4.736C10.7728 4.73104 10.7151 4.74032 10.6622 4.763C10.6073 4.78494 10.5544 4.81171 10.5042 4.843C10.4362 4.891 10.3702 4.955 10.3702 4.979C10.3888 5.029 10.4102 5.07833 10.4342 5.127C10.5142 5.315 10.5812 5.50833 10.6352 5.707C10.6752 5.847 10.7362 5.895 11.0352 6.021C11.3352 6.148 11.3812 6.164 11.4832 6.184C11.6165 6.20533 11.7498 6.20667 11.8832 6.188C11.9647 6.16599 12.0416 6.1294 12.1102 6.08L12.1452 6.051L12.0672 5.816ZM12.0672 5.816C12.0378 5.72486 12.0051 5.6348 11.9692 5.546C11.916 5.48448 11.8567 5.42853 11.7922 5.379L11.4222 5.073C11.1242 4.82 10.9962 4.748 10.8302 4.736C10.7728 4.73104 10.7151 4.74032 10.6622 4.763C10.6073 4.78494 10.5544 4.81171 10.5042 4.843C10.4362 4.891 10.3702 4.955 10.3702 4.979C10.3888 5.029 10.4102 5.07833 10.4342 5.127C10.5142 5.315 10.5812 5.50833 10.6352 5.707C10.6752 5.847 10.7362 5.895 11.0352 6.021C11.3352 6.148 11.3812 6.164 11.4832 6.184C11.6165 6.20533 11.7498 6.20667 11.8832 6.188C11.9647 6.16599 12.0416 6.1294 12.1102 6.08L12.1452 6.051L12.0672 5.816ZM12.0672 5.816C12.0378 5.72486 12.0051 5.6348 11.9692 5.546C11.916 5.48448 11.8567 5.42853 11.7922 5.379L11.4222 5.073C11.1242 4.82 10.9962 4.748 10.8302 4.736C10.7728 4.73104 10.7151 4.74032 10.6622 4.763C10.6073 4.78494 10.5544 4.81171 10.5042 4.843C10.4362 4.891 10.3702 4.955 10.3702 4.979C10.3888 5.029 10.4102 5.07833 10.4342 5.127C10.5142 5.315 10.5812 5.50833 10.6352 5.707C10.6752 5.847 10.7362 5.895 11.0352 6.021C11.3352 6.148 11.3812 6.164 11.4832 6.184C11.6165 6.20533 11.7498 6.20667 11.8832 6.188C11.9647 6.16599 12.0416 6.1294 12.1102 6.08L12.1452 6.051L12.0672 5.816ZM12.0672 5.816C12.0378 5.72486 12.0051 5.6348 11.9692 5.546C11.916 5.48448 11.8567 5.42853 11.7922 5.379L11.4222 5.073C11.1242 4.82 10.9962 4.748 10.8302 4.736C10.7728 4.73104 10.7151 4.74032 10.6622 4.763C10.6073 4.78494 10.5544 4.81171 10.5042 4.843C10.4362 4.891 10.3702 4.955 10.3702 4.979C10.3888 5.029 10.4102 5.07833 10.4342 5.127C10.5142 5.315 10.5812 5.50833 10.6352 5.707C10.6752 5.847 10.7362 5.895 11.0352 6.021C11.3352 6.148 11.3812 6.164 11.4832 6.184C11.6165 6.20533 11.7498 6.20667 11.8832 6.188C11.9647 6.16599 12.0416 6.1294 12.1102 6.08L12.1452 6.051L12.0672 5.816ZM12.0672 5.816C12.0378 5.72486 12.0051 5.6348 11.9692 5.546C11.916 5.48448 11.8567 5.42853 11.7922 5.379L11.4222 5.073C11.1242 4.82 10.9962 4.748 10.8302 4.736C10.7728 4.73104 10.7151 4.74032 10.6622 4.763C10.6073 4.78494 10.5544 4.81171 10.5042 4.843C10.4362 4.891 10.3702 4.955 10.3702 4.979C10.3888 5.029 10.4102 5.07833 10.4342 5.127C10.5142 5.315 10.5812 5.50833 10.6352 5.707C10.6752 5.847 10.7362 5.895 11.0352 6.021C11.3352 6.148 11.3812 6.164 11.4832 6.184C11.6165 6.20533 11.7498 6.20667 11.8832 6.188C11.9647 6.16599 12.0416 6.1294 12.1102 6.08L12.1452 6.051L12.0672 5.816ZM12.0672 5.816C12.0378 5.72486 12.0051 5.6348 11.9692 5.546C11.916 5.48448 11.8567 5.42853 11.7922 5.379L11.4222 5.073C11.1242 4.82 10.9962 4.748 10.8302 4.736C10.7728 4.73104 10.7151 4.74032 10.6622 4.763C10.6073 4.78494 10.5544 4.81171 10.5042 4.843C10.4362 4.891 10.3702 4.955 10.3702 4.979C10.3888 5.029 10.4102 5.07833 10.4342 5.127C10.5142 5.315 10.5812 5.50833 10.6352 5.707C10.6752 5.847 10.7362 5.895 11.0352 6.021C11.3352 6.148 11.3812 6.164 11.4832 6.184C11.6165 6.20533 11.7498 6.20667 11.8832 6.188C11.9647 6.16599 12.0416 6.1294 12.1102 6.08L12.1452 6.051L12.0672 5.816ZM12.0672 5.816C12.0378 5.72486 12.0051 5.6348 11.9692 5.546C11.916 5.48448 11.8567 5.42853 11.7922 5.379L11.4222 5.073C11.1242 4.82 10.9962 4.748 10.8302 4.736C10.7728 4.73104 10.7151 4.74032 10.6622 4.763C10.6073 4.78494 10.5544 4.81171 10.5042 4.843C10.4362 4.891 10.3702 4.955 10.3702 4.979C10.3888 5.029 10.4102 5.07833 10.4342 5.127C10.5142 5.315 10.5812 5.50833 10.6352 5.707C10.6752 5.847 10.7362 5.895 11.0352 6.021C11.3352 6.148 11.3812 6.164 11.4832 6.184C11.6165 6.20533 11.7498 6.20667 11.8832 6.188C11.9647 6.16599 12.0416 6.1294 12.1102 6.08L12.1452 6.051L12.0672 5.816ZM12.0672 5.816C12.0378 5.72486 12.0051 5.6348 11.9692 5.546C11.916 5.48448 11.8567 5.42853 11.7922 5.379L11.4222 5.073C11.1242 4.82 10.9962 4.748 10.8302 4.736C10.7728 4.73104 10.7151 4.74032 10.6622 4.763C10.6073 4.78494 10.5544 4.81171 10.5042 4.843C10.4362 4.891 10.3702 4.955 10.3702 4.979C10.3888 5.029 10.4102 5.07833 10.4342 5.127C10.5142 5.315 10.5812 5.50833 10.6352 5.707C10.6752 5.847 10.7362 5.895 11.0352 6.021C11.3352 6.148 11.3812 6.164 11.4832 6.184C11.6165 6.20533 11.7498 6.20667 11.8832 6.188C11.9647 6.16599 12.0416 6.1294 12.1102 6.08L12.1452 6.051L12.0672 5.816ZM12.0672 5.816C12.0378 5.72486 12.0051 5.6348 11.9692 5.546C11.916 5.48448 11.8567 5.42853 11.7922 5.379L11.4222 5.073C11.1242 4.82 10.9962 4.748 10.8302 4.736C10.7728 4.73104 10.7151 4.74032 10.6622 4.763C10.6073 4.78494 10.5544 4.81171 10.5042 4.843C10.4362 4.891 10.3702 4.955 10.3702 4.979C10.3888 5.029 10.4102 5.07833 10.4342 5.127C10.5142 5.315 10.5812 5.50833 10.6352 5.707C10.6752 5.847 10.7362 5.895 11.0352 6.021C11.3352 6.148 11.3812 6.164 11.4832 6.184C11.6165 6.20533 11.7498 6.20667 11.8832 6.188C11.9647 6.16599 12.0416 6.1294 12.1102 6.08L12.1452 6.051L12.0672 5.816ZM12.0672 5.816C12.0378 5.72486 12.0051 5.6348 11.9692 5.546C11.916 5.48448 11.8567 5.42853 11.7922 5.379L11.4222 5.073C11.1242 4.82 10.9962 4.748 10.8302 4.736C10.7728 4.73104 10.7151 4.74032 10.6622 4.763C10.6073 4.78494 10.5544 4.81171 10.5042 4.843C10.4362 4.891 10.3702 4.955 10.3702 4.979C10.3888 5.029 10.4102 5.07833 10.4342 5.127C10.5142 5.315 10.5812 5.50833 10.6352 5.707C10.6752 5.847 10.7362 5.895 11.0352 6.021C11.3352 6.148 11.3812 6.164 11.4832 6.184C11.6165 6.20533 11.7498 6.20667 11.8832 6.188C11.9647 6.16599 12.0416 6.1294 12.1102 6.08L12.1452 6.051L12.0672 5.816ZM12.0672 5.816C12.0378 5.72486 12.0051 5.6348 11.9692 5.546C11.916 5.48448 11.8567 5.42853 11.7922 5.379L11.4222 5.073C11.1242 4.82 10.9962 4.748 10.8302 4.736C10.7728 4.73104 10.7151 4.74032 10.6622 4.763C10.6073 4.78494 10.5544 4.81171 10.5042 4.843C10.4362 4.891 10.3702 4.955 10.3702 4.979C10.3888 5.029 10.4102 5.07833 10.4342 5.127C10.5142 5.315 10.5812 5.50833 10.6352 5.707C10.6752 5.847 10.7362 5.895 11.0352 6.021C11.3352 6.148 11.3812 6.164 11.4832 6.184C11.6165 6.20533 11.7498 6.20667 11.8832 6.188C11.9647 6.16599 12.0416 6.1294 12.1102 6.08L12.1452 6.051L12.0672 5.816ZM12.0672 5.816C12.0378 5.72486 12.0051 5.6348 11.9692 5.546C11.916 5.48448 11.8567 5.42853 11.7922 5.379L11.4222 5.073C11.1242 4.82 10.9962 4.748 10.8302 4.736C10.7728 4.73104 10.7151 4.74032 10.6622 4.763C10.6073 4.78494 10.5544 4.81171 10.5042 4.843C10.4362 4.891 10.3702 4.955 10.3702 4.979C10.3888 5.029 10.4102 5.07833 10.4342 5.127C10.5142 5.315 10.5812 5.50833 10.6352 5.707C10.6752 5.847 10.7362 5.895 11.0352 6.021C11.3352 6.148 11.3812 6.164 11.4832 6.184C11.6165 6.20533 11.7498 6.20667 11.8832 6.188C11.9647 6.16599 12.0416 6.1294 12.1102 6.08L12.1452 6.051L12.0672 5.816ZM12.0672 5.816C12.0378 5.72486 12.0051 5.6348 11.9692 5.546C11.916 5.48448 11.8567 5.42853 11.7922 5.379L11.4222 5.073C11.1242 4.82 10.9962 4.748 10.8302 4.736C10.7728 4.73104 10.7151 4.74032 10.6622 4.763C10.6073 4.78494 10.5544 4.81171 10.5042 4.843C10.4362 4.891 10.3702 4.955 10.3702 4.979C10.3888 5.029 10.4102 5.07833 10.4342 5.127C10.5142 5.315 10.5812 5.50833 10.6352 5.707C10.6752 5.847 10.7362 5.895 11.0352 6.021C11.3352 6.148 11.3812 6.164 11.4832 6.184C11.6165 6.20533 11.7498 6.20667 11.8832 6.188C11.9647 6.16599 12.0416 6.1294 12.1102 6.08L12.1452 6.051L12.0672 5.816ZM12.0672 5.816C12.0378 5.72486 12.0051 5.6348 11.9692 5.546C11.916 5.48448 11.8567 5.42853 11.7922 5.379L11.4222 5.073C11.1242 4.82 10.9962 4.748 10.8302 4.736C10.7728 4.73104 10.7151 4.74032 10.6622 4.763C10.6073 4.78494 10.5544 4.81171 10.5042 4.843C10.4362 4.891 10.3702 4.955 10.3702 4.979C10.3888 5.029 10.4102 5.07833 10.4342 5.127C10.5142 5.315 10.5812 5.50833 10.6352 5.707C10.6752 5.847 10.7362 5.895 11.0352 6.021C11.3352 6.148 11.3812 6.164 11.4832 6.184C11.6165 6.20533 11.7498 6.20667 11.8832 6.188C11.9647 6.16599 12.0416 6.1294 12.1102 6.08L12.1452 6.051L12.0672 5.816ZM12.0672 5.816C12.0378 5.72486 12.0051 5.6348 11.9692 5.546C11.916 5.48448 11.8567 5.42853 11.7922 5.379L11.4222 5.073C11.1242 4.82 10.9962 4.748 10.8302 4.736C10.7728 4.73104 10.7151 4.74032 10.6622 4.763C10.6073 4.78494 10.5544 4.81171 10.5042 4.843C10.4362 4.891 10.3702 4.955 10.3702 4.979C10.3888 5.029 10.4102 5.07833 10.4342 5.127C10.5142 5.315 10.5812 5.50833 10.6352 5.707C10.6752 5.847 10.7362 5.895 11.0352 6.021C11.3352 6.148 11.3812 6.164 11.4832 6.184C11.6165 6.20533 11.7498 6.20667 11.8832 6.188C11.9647 6.16599 12.0416 6.1294 12.1102 6.08L12.1452 6.051L12.0672 5.816ZM12.0672 5.816C12.0378 5.72486 12.0051 5.6348 11.9692 5.546C11.916 5.48448 11.8567 5.42853 11.7922 5.379L11.4222 5.073C11.1242 4.82 10.9962 4.748 10.8302 4.736C10.7728 4.73104 10.7151 4.74032 10.6622 4.763C10.6073 4.78494 10.5544 4.81171 10.5042 4.843C10.4362 4.891 10.3702 4.955 10.3702 4.979C10.3888 5.029 10.4102 5.07833 10.4342 5.127C10.5142 5.315 10.5812 5.50833 10.6352 5.707C10.6752 5.847 10.7362 5.895 11.0352 6.021C11.3352 6.148 11.3812 6.164 11.4832 6.184C11.6165 6.20533 11.7498 6.20667 11.8832 6.188C11.9647 6.16599 12.0416 6.1294 12.1102 6.08L12.1452 6.051L12.0672 5.816ZM12.0672 5.816C12.0378 5.72486 12.0051 5.6348 11.9692 5.546C11.916 5.48448 11.8567 5.42853 11.7922 5.379L11.4222 5.073C11.1242 4.82 10.9962 4.748 10.8302 4.736C10.7728 4.73104 10.7151 4.74032 10.6622 4.763C10.6073 4.78494 10.5544 4.81171 10.5042 4.843C10.4362 4.891 10.3702 4.955 10.3702 4.979C10.3888 5.029 10.4102 5.07833 10.4342 5.127C10.5142 5.315 10.5812 5.50833 10.6352 5.707C10.6752 5.847 10.7362 5.895 11.0352 6.021C11.3352 6.148 11.3812 6.164 11.4832 6.184C11.6165 6.20533 11.7498 6.20667 11.8832 6.188C11.9647 6.16599 12.0416 6.1294 12.1102 6.08L12.1452 6.051L12.0672 5.816ZM12.0672 5.816C12.0378 5.72486 12.0051 5.6348 11.9692 5.546C11.916 5.48448 11.8567 5.42853 11.7922 5.379L11.4222 5.073C11.1242 4.82 10.9962 4.748 10.8302 4.736C10.7728 4.73104 10.7151 4.74032 10.6622 4.763C10.6073 4.78494 10.5544 4.81171 10.5042 4.843C10.4362 4.891 10.3702 4.955 10.3702 4.979C10.3888 5.029 10.4102 5.07833 10.4342 5.127C10.5142 5.315 10.5812 5.50833 10.6352 5.707C10.6752 5.847 10.7362 5.895 11.0352 6.021C11.3352 6.148 11.3812 6.164 11.4832 6.184C11.6165 6.20533 11.7498 6.20667 11.8832 6.188C11.9647 6.16599 12.0416 6.1294 12.1102 6.08L12.1452 6.051L12.0672 5.816ZM12.0672 5.816C12.0378 5.72486 12.0051 5.6348 11.9692 5.546C11.916 5.48448 11.8567 5.42853 11.7922 5.379L11.4222 5.073C11.1242 4.82 10.9962 4.748 10.8302 4.736C10.7728 4.73104 10.7151 4.74032 10.6622 4.763C10.6073 4.78494 10.5544 4.81171 10.5042 4.843C10.4362 4.891 10.3702 4.955 10.3702 4.979C10.3888 5.029 10.4102 5.07833 10.4342 5.127C10.5142 5.315 10.5812 5.50833 10.6352 5.707C10.6752 5.847 10.7362 5.895 11.0352 6.021C11.3352 6.148 11.3812 6.164 11.4832 6.184C11.6165 6.20533 11.7498 6.20667 11.8832 6.188C11.9647 6.16599 12.0416 6.1294 12.1102 6.08L12.1452 6.051L12.0672 5.816ZM12.0672 5.816C12.0378 5.72486 12.0051 5.6348 11.9692 5.546C11.916 5.48448 11.8567 5.42853 11.7922 5.379L11.4222 5.073C11.1242 4.82 10.9962 4.748 10.8302 4.736C10.7728 4.73104 10.7151 4.74032 10.6622 4.763C10.6073 4.78494 10.5544 4.81171 10.5042 4.843C10.4362 4.891 10.3702 4.955 10.3702 4.979C10.3888 5.029 10.4102 5.07833 10.4342 5.127C10.5142 5.315 10.5812 5.50833 10.6352 5.707C10.6752 5.847 10.7362 5.895 11.0352 6.021C11.3352 6.148 11.3812 6.164 11.4832 6.184C11.6165 6.20533 11.7498 6.20667 11.8832 6.188C11.9647 6.16599 12.0416 6.1294 12.1102 6.08L12.1452 6.051L12.0672 5.816ZM12.0672 5.816C12.0378 5.72486 12.0051 5.6348 11.9692 5.546C11.916 5.48448 11.8567 5.42853 11.7922 5.379L11.4222 5.073C11.1242 4.82 10.9962 4.748 10.8302 4.736C10.7728 4.73104 10.7151 4.74032 10.6622 4.763C10.6073 4.78494 10.5544 4.81171 10.5042 4.843C10.4362 4.891 10.3702 4.955 10.3702 4.979C10.3888 5.029 10.4102 5.07833 10.4342 5.127C10.5142 5.315 10.5812 5.50833 10.6352 5.707C10.6752 5.847 10.7362 5.895 11.0352 6.021C11.3352 6.148 11.3812 6.164 11.4832 6.184C11.6165 6.20533 11.7498 6.20667 11.8832 6.188C11.9647 6.16599 12.0416 6.1294 12.1102 6.08L12.1452 6.051L12.0672 5.816ZM15.8802 9.189C15.7785 9.01527 15.6638 8.84947 15.5372 8.693C15.4312 8.557 15.1672 8.233 14.8822 7.892C14.7822 7.772 14.6622 7.632 14.6202 7.578C14.5813 7.52907 14.5413 7.48106 14.5002 7.434L14.3662 7.277L14.1302 6.995C13.7882 6.58875 13.4515 6.17805 13.1202 5.763C12.9552 5.55 12.9502 5.536 12.7572 4.903C12.729 4.8049 12.6983 4.70754 12.6652 4.611C12.6561 4.59038 12.6436 4.57145 12.6282 4.555C12.5575 4.47033 12.3802 4.321 12.0962 4.107C11.9847 4.02293 11.8747 3.93691 11.7662 3.849C11.498 3.62839 11.2204 3.41953 10.9342 3.223C10.6745 3.03856 10.3987 2.87791 10.1102 2.743L10.0392 2.714C9.94367 2.67071 9.84004 2.64821 9.73518 2.648H9.71318L9.68618 2.652H9.66518C9.62518 2.65667 9.58518 2.66233 9.54518 2.669L9.43918 2.687C9.40318 2.693 9.37318 2.697 9.33918 2.704L9.27718 2.717H9.26518C9.22518 2.72433 9.18485 2.73267 9.14418 2.742L9.07918 2.757L9.03318 2.767L8.98318 2.78L8.82818 2.82L8.71218 2.855L8.65218 2.875C8.61054 2.89075 8.56727 2.90182 8.52318 2.908C8.54185 2.82 8.56518 2.73333 8.59318 2.648C8.85318 1.778 8.93918 1.334 8.95818 0.755C8.96818 0.423 8.92818 0.015 8.88718 0C8.87718 0 8.84918 0.03 8.82218 0.073C8.79518 0.116 8.72218 0.233 8.66218 0.334C8.48372 0.608331 8.29044 0.872724 8.08318 1.126C7.77518 1.486 7.27318 1.929 6.92518 2.143C6.68318 2.291 6.51118 2.36 6.04718 2.48V2.485C5.94051 2.51433 5.83051 2.546 5.71718 2.58L5.72118 3.105L5.73118 4.231L5.14718 3.273L4.89718 2.863C4.57974 2.99008 4.27077 3.13738 3.97218 3.304L4.07518 3.924L4.26218 5.034L3.53318 4.184L3.20318 3.799C2.91547 4.01031 2.64435 4.24333 2.39218 4.496L2.62918 5.034L3.08218 6.063L2.16818 5.423L1.80218 5.166C1.57685 5.456 1.37351 5.76133 1.19218 6.082L1.49218 6.472L2.17218 7.362L1.13418 6.959L0.816181 6.836C0.652847 7.20867 0.516181 7.59133 0.406181 7.984L0.786181 8.262L1.68618 8.924L0.578181 8.832L0.209181 8.802C0.142514 9.144 0.0921806 9.489 0.0581806 9.837L0.556181 10.097L1.54418 10.61L0.438181 10.696L0.00418059 10.728C-0.00381941 11.066 0.00118059 11.4033 0.0191806 11.74L0.616181 11.95L1.66618 12.32L0.579181 12.556L0.101181 12.661C0.149181 13.051 0.214181 13.44 0.295181 13.814L0.702181 13.837L1.81118 13.901L0.831181 14.431L0.493181 14.615C0.634514 15.1257 0.809847 15.6243 1.01918 16.111C1.01918 16.111 6.38218 15.588 12.0682 20C12.4641 18.8456 12.5907 17.6159 12.4382 16.405C12.3347 15.5907 12.1049 14.7975 11.7572 14.054C11.1642 12.574 10.7352 12.189 10.6502 12.124L10.6352 12.113C10.6352 12.133 10.6352 12.678 10.0312 12.212C8.93413 11.3425 8.0899 10.1951 7.58618 8.889C7.40077 8.41245 7.29437 7.90883 7.27118 7.398V7.394L7.26818 7.38C7.42618 7.72333 7.61785 8.047 7.84318 8.351C8.01251 8.56567 8.20285 8.759 8.41418 8.931C8.81618 9.233 9.28618 9.433 9.85718 9.553C10.1949 9.63109 10.5359 9.69415 10.8792 9.742C10.9792 9.756 11.1332 9.786 11.2192 9.808C11.7772 9.948 12.5922 10.305 12.7782 10.497C12.8332 10.552 12.8712 10.637 12.9982 10.978C13.1082 11.269 13.1502 11.376 13.1882 11.415L13.1952 11.422C13.2502 11.474 14.0582 11.582 14.4882 11.598C14.7152 11.615 14.9432 11.57 15.1472 11.468C15.2436 11.4276 15.3297 11.3661 15.3992 11.288C15.4554 11.232 15.5047 11.1696 15.5462 11.102C15.6062 10.9473 15.6568 10.79 15.6982 10.63C15.7628 10.3917 15.8361 10.1559 15.9182 9.923L15.9572 9.812C16.0282 9.609 16.0172 9.44 15.8802 9.191V9.189ZM5.83018 5.034C4.25018 7.026 4.06318 9.334 6.98418 11.896C6.1062 11.7676 5.24761 11.5304 4.42818 11.19C4.52118 11.304 6.34718 13.512 9.27118 14.474H9.27418L9.36218 14.503C9.75418 14.62 10.0122 14.546 10.0272 14.19C10.0602 14.238 11.1912 15.889 11.0012 17.526C10.1313 16.5623 9.1333 15.7225 8.03518 15.03C8.27918 15.39 8.44418 15.8 8.51818 16.231C8.22418 16.002 5.90218 14.242 3.17318 13.624C1.99718 7.484 5.83018 5.034 5.83018 5.034ZM15.5232 9.648C15.4572 9.858 15.2662 10.387 15.2492 10.406C15.2429 10.4128 15.2351 10.4179 15.2264 10.4209C15.2176 10.4239 15.2083 10.4246 15.1992 10.423C15.1877 10.4203 15.1772 10.4148 15.1684 10.4069C15.1597 10.399 15.1531 10.3891 15.1492 10.378C15.1195 10.2746 15.0921 10.1706 15.0672 10.066L15.0002 9.791L15.0332 9.692L15.0542 9.628C15.0555 9.62133 15.0575 9.61567 15.0602 9.611C15.079 9.57004 15.0808 9.52328 15.0652 9.481V9.475C15.0422 9.422 15.0192 9.393 14.6052 8.926C14.4502 8.752 14.1652 8.426 13.9632 8.198C13.7622 7.971 13.5332 7.707 13.4462 7.613L13.1082 7.237C12.8522 6.95 12.4742 6.569 12.3862 6.51C12.3428 6.47577 12.2927 6.45091 12.2392 6.437C12.2033 6.4342 12.1674 6.44111 12.1352 6.457C11.989 6.51457 11.8321 6.54014 11.6752 6.532C11.4706 6.53702 11.2669 6.50273 11.0752 6.431C10.7742 6.329 10.3912 6.144 10.2772 6.046C10.2032 5.981 10.1492 5.856 10.0572 5.536C10.0202 5.40044 9.97618 5.26692 9.92518 5.136C9.90333 5.08451 9.88364 5.03214 9.86618 4.979C9.84318 4.85 10.1262 4.622 10.3962 4.552L10.4832 4.529V4.437C10.4832 4.204 10.4092 4.027 10.2332 3.844C10.1732 3.781 10.1382 3.745 10.1462 3.74C10.1542 3.734 10.2312 3.77 10.3992 3.856C10.8965 4.114 11.3725 4.40733 11.8272 4.736C11.9365 4.812 12.0395 4.89567 12.1362 4.987C12.2082 5.05833 12.2658 5.14033 12.3092 5.233L12.3122 5.24C12.3422 5.301 12.3722 5.378 12.4122 5.48L12.4272 5.519C12.4725 5.647 12.5248 5.77233 12.5842 5.895C12.6408 5.991 12.8282 6.22667 13.1462 6.602L13.4232 6.931L13.4302 6.94L13.6422 7.191C13.7752 7.349 14.0622 7.684 14.2792 7.932C14.9552 8.708 15.3332 9.152 15.4392 9.292C15.4858 9.34821 15.5184 9.41471 15.5342 9.486C15.5435 9.54067 15.5402 9.59467 15.5242 9.648M11.9722 5.548C11.9187 5.48643 11.859 5.43047 11.7942 5.381C11.7062 5.31 11.5412 5.172 11.4242 5.075C11.1272 4.822 10.9992 4.75 10.8332 4.738C10.7759 4.73273 10.7182 4.74166 10.6652 4.764C10.6092 4.78578 10.5553 4.81155 10.5042 4.843C10.4362 4.89 10.3702 4.954 10.3702 4.979C10.3888 5.029 10.4102 5.07833 10.4342 5.127C10.5142 5.315 10.5812 5.50833 10.6352 5.707C10.6752 5.847 10.7362 5.895 11.0352 6.021C11.3352 6.148 11.3812 6.164 11.4832 6.184C11.6165 6.20533 11.7498 6.20667 11.8832 6.188C11.9647 6.16599 12.0416 6.1294 12.1102 6.08L12.1452 6.051L12.0672 5.816C12.0369 5.7255 12.0053 5.63749 11.9722 5.548ZM12.0702 5.817C12.0408 5.72586 12.0081 5.6368 11.9722 5.548C11.9187 5.48643 11.859 5.43047 11.7942 5.381C11.7062 5.31 11.5412 5.172 11.4242 5.075C11.1272 4.822 10.9992 4.75 10.8332 4.738C10.7759 4.73273 10.7182 4.74166 10.6652 4.764C10.6092 4.78578 10.5553 4.81155 10.5042 4.843C10.4362 4.89 10.3702 4.954 10.3702 4.979C10.3888 5.029 10.4102 5.07833 10.4342 5.127C10.5142 5.315 10.5812 5.50833 10.6352 5.707C10.6752 5.847 10.7362 5.895 11.0352 6.021C11.3352 6.148 11.3812 6.164 11.4832 6.184C11.6165 6.20533 11.7498 6.20567 11.8832 6.187C11.9647 6.16499 12.0416 6.1294 12.1102 6.08L12.1452 6.051L12.0702 5.817ZM12.0702 5.817C12.0408 5.72586 12.0081 5.6368 11.9722 5.548C11.9187 5.48643 11.859 5.43047 11.7942 5.381C11.7062 5.31 11.5412 5.172 11.4242 5.075C11.1272 4.822 10.9992 4.75 10.8332 4.738C10.7759 4.73273 10.7182 4.74166 10.6652 4.764C10.6092 4.78578 10.5553 4.81155 10.5042 4.843C10.4362 4.89 10.3702 4.954 10.3702 4.979C10.3888 5.029 10.4102 5.07833 10.4342 5.127C10.5142 5.315 10.5812 5.50833 10.6352 5.707C10.6752 5.847 10.7362 5.895 11.0352 6.021C11.3352 6.148 11.3812 6.164 11.4832 6.184C11.6165 6.20533 11.7498 6.20567 11.8832 6.187C11.9647 6.16499 12.0416 6.1294 12.1102 6.08L12.1452 6.051L12.0702 5.817ZM12.0702 5.817C12.0408 5.72586 12.0081 5.6368 11.9722 5.548C11.9187 5.48643 11.859 5.43047 11.7942 5.381C11.7062 5.31 11.5412 5.172 11.4242 5.075C11.1272 4.822 10.9992 4.75 10.8332 4.738C10.7759 4.73273 10.7182 4.74166 10.6652 4.764C10.6092 4.78578 10.5553 4.81155 10.5042 4.843C10.4362 4.89 10.3702 4.954 10.3702 4.979C10.3888 5.029 10.4102 5.07833 10.4342 5.127C10.5142 5.315 10.5812 5.50833 10.6352 5.707C10.6752 5.847 10.7362 5.895 11.0352 6.021C11.3352 6.148 11.3812 6.164 11.4832 6.184C11.6165 6.20533 11.7498 6.20567 11.8832 6.187C11.9647 6.16499 12.0416 6.1294 12.1102 6.08L12.1452 6.051L12.0702 5.817ZM12.0702 5.817C12.0408 5.72586 12.0081 5.6368 11.9722 5.548C11.9187 5.48643 11.859 5.43047 11.7942 5.381C11.7062 5.31 11.5412 5.172 11.4242 5.075C11.1272 4.822 10.9992 4.75 10.8332 4.738C10.7759 4.73273 10.7182 4.74166 10.6652 4.764C10.6092 4.78578 10.5553 4.81155 10.5042 4.843C10.4362 4.89 10.3702 4.954 10.3702 4.979C10.3888 5.029 10.4102 5.07833 10.4342 5.127C10.5142 5.315 10.5812 5.50833 10.6352 5.707C10.6752 5.847 10.7362 5.895 11.0352 6.021C11.3352 6.148 11.3812 6.164 11.4832 6.184C11.6165 6.20533 11.7498 6.20567 11.8832 6.187C11.9647 6.16499 12.0416 6.1294 12.1102 6.08L12.1452 6.051L12.0702 5.817ZM12.0672 5.816C12.0378 5.72486 12.0051 5.6348 11.9692 5.546C11.916 5.48448 11.8567 5.42853 11.7922 5.379C11.7042 5.308 11.5382 5.17 11.4222 5.073C11.1242 4.82 10.9962 4.748 10.8302 4.736C10.7728 4.73104 10.7151 4.74032 10.6622 4.763C10.6073 4.78494 10.5544 4.81171 10.5042 4.843C10.4362 4.89 10.3702 4.954 10.3702 4.979C10.3888 5.029 10.4102 5.07833 10.4342 5.127C10.5142 5.315 10.5812 5.50833 10.6352 5.707C10.6752 5.847 10.7362 5.895 11.0352 6.021C11.3352 6.148 11.3812 6.164 11.4832 6.184C11.6165 6.20533 11.7498 6.20567 11.8832 6.187C11.9647 6.16499 12.0416 6.1294 12.1102 6.08L12.1452 6.051L12.0672 5.816ZM12.0672 5.816C12.0378 5.72486 12.0051 5.6348 11.9692 5.546C11.916 5.48448 11.8567 5.42853 11.7922 5.379C11.7042 5.308 11.5382 5.17 11.4222 5.073C11.1242 4.82 10.9962 4.748 10.8302 4.736C10.7728 4.73104 10.7151 4.74032 10.6622 4.763C10.6073 4.78494 10.5544 4.81171 10.5042 4.843C10.4362 4.89 10.3702 4.954 10.3702 4.979C10.3888 5.029 10.4102 5.07833 10.4342 5.127C10.5142 5.315 10.5812 5.50833 10.6352 5.707C10.6752 5.847 10.7362 5.895 11.0352 6.021C11.3352 6.148 11.3812 6.164 11.4832 6.184C11.6165 6.20533 11.7498 6.20567 11.8832 6.187C11.9647 6.16499 12.0416 6.1294 12.1102 6.08L12.1452 6.051L12.0672 5.816ZM12.0672 5.816C12.0378 5.72486 12.0051 5.6348 11.9692 5.546C11.916 5.48448 11.8567 5.42853 11.7922 5.379C11.7042 5.308 11.5382 5.17 11.4222 5.073C11.1242 4.82 10.9962 4.748 10.8302 4.736C10.7728 4.73104 10.7151 4.74032 10.6622 4.763C10.6073 4.78494 10.5544 4.81171 10.5042 4.843C10.4362 4.89 10.3702 4.954 10.3702 4.979C10.3888 5.029 10.4102 5.07833 10.4342 5.127C10.5142 5.315 10.5812 5.50833 10.6352 5.707C10.6752 5.847 10.7362 5.895 11.0352 6.021C11.3352 6.148 11.3812 6.164 11.4832 6.184C11.6165 6.20533 11.7498 6.20567 11.8832 6.187C11.9647 6.16499 12.0416 6.1294 12.1102 6.08L12.1452 6.051L12.0672 5.816ZM12.0672 5.816C12.0378 5.72486 12.0051 5.6348 11.9692 5.546C11.916 5.48448 11.8567 5.42853 11.7922 5.379C11.7042 5.308 11.5382 5.17 11.4222 5.073C11.1242 4.82 10.9962 4.748 10.8302 4.736C10.7728 4.73104 10.7151 4.74032 10.6622 4.763C10.6073 4.78494 10.5544 4.81171 10.5042 4.843C10.4362 4.89 10.3702 4.954 10.3702 4.979C10.3888 5.029 10.4102 5.07833 10.4342 5.127C10.5142 5.315 10.5812 5.50833 10.6352 5.707C10.6752 5.847 10.7362 5.895 11.0352 6.021C11.3352 6.148 11.3812 6.164 11.4832 6.184C11.6165 6.20533 11.7498 6.20567 11.8832 6.187C11.9647 6.16499 12.0416 6.1294 12.1102 6.08L12.1452 6.051L12.0672 5.816ZM12.0672 5.816C12.0378 5.72486 12.0051 5.6348 11.9692 5.546C11.916 5.48448 11.8567 5.42853 11.7922 5.379C11.7042 5.308 11.5382 5.17 11.4222 5.073C11.1242 4.82 10.9962 4.748 10.8302 4.736C10.7728 4.73104 10.7151 4.74032 10.6622 4.763C10.6073 4.78494 10.5544 4.81171 10.5042 4.843C10.4362 4.89 10.3702 4.954 10.3702 4.979C10.3888 5.029 10.4102 5.07833 10.4342 5.127C10.5142 5.315 10.5812 5.50833 10.6352 5.707C10.6752 5.847 10.7362 5.895 11.0352 6.021C11.3352 6.148 11.3812 6.164 11.4832 6.184C11.6165 6.20533 11.7498 6.20567 11.8832 6.187C11.9647 6.16499 12.0416 6.1294 12.1102 6.08L12.1452 6.051L12.0672 5.816ZM12.0672 5.816C12.0378 5.72486 12.0051 5.6348 11.9692 5.546C11.916 5.48448 11.8567 5.42853 11.7922 5.379C11.7042 5.308 11.5382 5.17 11.4222 5.073C11.1242 4.82 10.9962 4.748 10.8302 4.736C10.7728 4.73104 10.7151 4.74032 10.6622 4.763C10.6073 4.78494 10.5544 4.81171 10.5042 4.843C10.4362 4.89 10.3702 4.954 10.3702 4.979C10.3888 5.029 10.4102 5.07833 10.4342 5.127C10.5142 5.315 10.5812 5.50833 10.6352 5.707C10.6752 5.847 10.7362 5.895 11.0352 6.021C11.3352 6.148 11.3812 6.164 11.4832 6.184C11.6165 6.20533 11.7498 6.20567 11.8832 6.187C11.9647 6.16499 12.0416 6.1294 12.1102 6.08L12.1452 6.051L12.0672 5.816ZM12.0672 5.816C12.0378 5.72486 12.0051 5.6348 11.9692 5.546C11.916 5.48448 11.8567 5.42853 11.7922 5.379C11.7042 5.308 11.5382 5.17 11.4222 5.073C11.1242 4.82 10.9962 4.748 10.8302 4.736C10.7728 4.73104 10.7151 4.74032 10.6622 4.763C10.6073 4.78494 10.5544 4.81171 10.5042 4.843C10.4362 4.89 10.3702 4.954 10.3702 4.979C10.3888 5.029 10.4102 5.07833 10.4342 5.127C10.5142 5.315 10.5812 5.50833 10.6352 5.707C10.6752 5.847 10.7362 5.895 11.0352 6.021C11.3352 6.148 11.3812 6.164 11.4832 6.184C11.6165 6.20533 11.7498 6.20567 11.8832 6.187C11.9647 6.16499 12.0416 6.1294 12.1102 6.08L12.1452 6.051L12.0672 5.816ZM12.0672 5.816C12.0378 5.72486 12.0051 5.6348 11.9692 5.546C11.916 5.48448 11.8567 5.42853 11.7922 5.379C11.7042 5.308 11.5382 5.17 11.4222 5.073C11.1242 4.82 10.9962 4.748 10.8302 4.736C10.7728 4.73104 10.7151 4.74032 10.6622 4.763C10.6073 4.78494 10.5544 4.81171 10.5042 4.843C10.4362 4.89 10.3702 4.954 10.3702 4.979C10.3888 5.029 10.4102 5.07833 10.4342 5.127C10.5142 5.315 10.5812 5.50833 10.6352 5.707C10.6752 5.847 10.7362 5.895 11.0352 6.021C11.3352 6.148 11.3812 6.164 11.4832 6.184C11.6165 6.20533 11.7498 6.20567 11.8832 6.187C11.9647 6.16499 12.0416 6.1294 12.1102 6.08L12.1452 6.051L12.0672 5.816ZM12.0672 5.816C12.0378 5.72486 12.0051 5.6348 11.9692 5.546C11.916 5.48448 11.8567 5.42853 11.7922 5.379C11.7042 5.308 11.5382 5.17 11.4222 5.073C11.1242 4.82 10.9962 4.748 10.8302 4.736C10.7728 4.73104 10.7151 4.74032 10.6622 4.763C10.6073 4.78494 10.5544 4.81171 10.5042 4.843C10.4362 4.89 10.3702 4.954 10.3702 4.979C10.3888 5.029 10.4102 5.07833 10.4342 5.127C10.5142 5.315 10.5812 5.50833 10.6352 5.707C10.6752 5.847 10.7362 5.895 11.0352 6.021C11.3352 6.148 11.3812 6.164 11.4832 6.184C11.6165 6.20533 11.7498 6.20567 11.8832 6.187C11.9647 6.16499 12.0416 6.1294 12.1102 6.08L12.1452 6.051L12.0672 5.816ZM12.0672 5.816C12.0378 5.72486 12.0051 5.6348 11.9692 5.546C11.916 5.48448 11.8567 5.42853 11.7922 5.379C11.7042 5.308 11.5382 5.17 11.4222 5.073C11.1242 4.82 10.9962 4.748 10.8302 4.736C10.7728 4.73104 10.7151 4.74032 10.6622 4.763C10.6073 4.78494 10.5544 4.81171 10.5042 4.843C10.4362 4.89 10.3702 4.954 10.3702 4.979C10.3888 5.029 10.4102 5.07833 10.4342 5.127C10.5142 5.315 10.5812 5.50833 10.6352 5.707C10.6752 5.847 10.7362 5.895 11.0352 6.021C11.3352 6.148 11.3812 6.164 11.4832 6.184C11.6165 6.20533 11.7498 6.20567 11.8832 6.187C11.9647 6.16499 12.0416 6.1294 12.1102 6.08L12.1452 6.051L12.0672 5.816ZM12.0672 5.816C12.0378 5.72486 12.0051 5.6348 11.9692 5.546C11.916 5.48448 11.8567 5.42853 11.7922 5.379C11.7042 5.308 11.5382 5.17 11.4222 5.073C11.1242 4.82 10.9962 4.748 10.8302 4.736C10.7728 4.73104 10.7151 4.74032 10.6622 4.763C10.6073 4.78494 10.5544 4.81171 10.5042 4.843C10.4362 4.89 10.3702 4.954 10.3702 4.979C10.3888 5.029 10.4102 5.07833 10.4342 5.127C10.5142 5.315 10.5812 5.50833 10.6352 5.707C10.6752 5.847 10.7362 5.895 11.0352 6.021C11.3352 6.148 11.3812 6.164 11.4832 6.184C11.6165 6.20533 11.7498 6.20567 11.8832 6.187C11.9647 6.16499 12.0416 6.1294 12.1102 6.08L12.1452 6.051L12.0672 5.816ZM12.0672 5.816C12.0378 5.72486 12.0051 5.6348 11.9692 5.546C11.916 5.48448 11.8567 5.42853 11.7922 5.379C11.7042 5.308 11.5382 5.17 11.4222 5.073C11.1242 4.82 10.9962 4.748 10.8302 4.736C10.7728 4.73104 10.7151 4.74032 10.6622 4.763C10.6073 4.78494 10.5544 4.81171 10.5042 4.843C10.4362 4.89 10.3702 4.954 10.3702 4.979C10.3888 5.029 10.4102 5.07833 10.4342 5.127C10.5142 5.315 10.5812 5.50833 10.6352 5.707C10.6752 5.847 10.7362 5.895 11.0352 6.021C11.3352 6.148 11.3812 6.164 11.4832 6.184C11.6165 6.20533 11.7498 6.20567 11.8832 6.187C11.9647 6.16499 12.0416 6.1294 12.1102 6.08L12.1452 6.051L12.0672 5.816ZM12.0672 5.816C12.0378 5.72486 12.0051 5.6348 11.9692 5.546C11.916 5.48448 11.8567 5.42853 11.7922 5.379C11.7042 5.308 11.5382 5.17 11.4222 5.073C11.1242 4.82 10.9962 4.748 10.8302 4.736C10.7728 4.73104 10.7151 4.74032 10.6622 4.763C10.6073 4.78494 10.5544 4.81171 10.5042 4.843C10.4362 4.89 10.3702 4.954 10.3702 4.979C10.3888 5.029 10.4102 5.07833 10.4342 5.127C10.5142 5.315 10.5812 5.50833 10.6352 5.707C10.6752 5.847 10.7362 5.895 11.0352 6.021C11.3352 6.148 11.3812 6.164 11.4832 6.184C11.6165 6.20533 11.7498 6.20567 11.8832 6.187C11.9647 6.16499 12.0416 6.1294 12.1102 6.08L12.1452 6.051L12.0672 5.816ZM15.0012 9.79L15.0342 9.691L15.0552 9.627L15.0012 9.79ZM12.0672 5.816C12.0378 5.72486 12.0051 5.6348 11.9692 5.546C11.916 5.48448 11.8567 5.42853 11.7922 5.379C11.7042 5.308 11.5382 5.17 11.4222 5.073C11.1242 4.82 10.9962 4.748 10.8302 4.736C10.7728 4.73104 10.7151 4.74032 10.6622 4.763C10.6073 4.78494 10.5544 4.81171 10.5042 4.843C10.4362 4.89 10.3702 4.954 10.3702 4.979C10.3888 5.029 10.4102 5.07833 10.4342 5.127C10.5142 5.315 10.5812 5.50833 10.6352 5.707C10.6752 5.847 10.7362 5.895 11.0352 6.021C11.3352 6.148 11.3812 6.164 11.4832 6.184C11.6165 6.20533 11.7498 6.20567 11.8832 6.187C11.9647 6.16499 12.0416 6.1294 12.1102 6.08L12.1452 6.051L12.0672 5.816ZM12.0672 5.816C12.0378 5.72486 12.0051 5.6348 11.9692 5.546C11.916 5.48448 11.8567 5.42853 11.7922 5.379C11.7042 5.308 11.5382 5.17 11.4222 5.073C11.1242 4.82 10.9962 4.748 10.8302 4.736C10.7728 4.73104 10.7151 4.74032 10.6622 4.763C10.6073 4.78494 10.5544 4.81171 10.5042 4.843C10.4362 4.89 10.3702 4.954 10.3702 4.979C10.3888 5.029 10.4102 5.07833 10.4342 5.127C10.5142 5.315 10.5812 5.50833 10.6352 5.707C10.6752 5.847 10.7362 5.895 11.0352 6.021C11.3352 6.148 11.3812 6.164 11.4832 6.184C11.6165 6.20533 11.7498 6.20567 11.8832 6.187C11.9647 6.16499 12.0416 6.1294 12.1102 6.08L12.1452 6.051L12.0672 5.816ZM12.0672 5.816C12.0378 5.72486 12.0051 5.6348 11.9692 5.546C11.916 5.48448 11.8567 5.42853 11.7922 5.379C11.7042 5.308 11.5382 5.17 11.4222 5.073C11.1242 4.82 10.9962 4.748 10.8302 4.736C10.7728 4.73104 10.7151 4.74032 10.6622 4.763C10.6073 4.78494 10.5544 4.81171 10.5042 4.843C10.4362 4.89 10.3702 4.954 10.3702 4.979C10.3888 5.029 10.4102 5.07833 10.4342 5.127C10.5142 5.315 10.5812 5.50833 10.6352 5.707C10.6752 5.847 10.7362 5.895 11.0352 6.021C11.3352 6.148 11.3812 6.164 11.4832 6.184C11.6165 6.20533 11.7498 6.20567 11.8832 6.187C11.9647 6.16499 12.0416 6.1294 12.1102 6.08L12.1452 6.051L12.0672 5.816ZM12.0672 5.816C12.0378 5.72486 12.0051 5.6348 11.9692 5.546C11.916 5.48448 11.8567 5.42853 11.7922 5.379C11.7042 5.308 11.5382 5.17 11.4222 5.073C11.1242 4.82 10.9962 4.748 10.8302 4.736C10.7728 4.73104 10.7151 4.74032 10.6622 4.763C10.6073 4.78494 10.5544 4.81171 10.5042 4.843C10.4362 4.89 10.3702 4.954 10.3702 4.979C10.3888 5.029 10.4102 5.07833 10.4342 5.127C10.5142 5.315 10.5812 5.50833 10.6352 5.707C10.6752 5.847 10.7362 5.895 11.0352 6.021C11.3352 6.148 11.3812 6.164 11.4832 6.184C11.6165 6.20533 11.7498 6.20567 11.8832 6.187C11.9647 6.16499 12.0416 6.1294 12.1102 6.08L12.1452 6.051L12.0672 5.816ZM12.0672 5.816C12.0378 5.72486 12.0051 5.6348 11.9692 5.546C11.916 5.48448 11.8567 5.42853 11.7922 5.379C11.7042 5.308 11.5382 5.17 11.4222 5.073C11.1242 4.82 10.9962 4.748 10.8302 4.736C10.7728 4.73104 10.7151 4.74032 10.6622 4.763C10.6073 4.78494 10.5544 4.81171 10.5042 4.843C10.4362 4.89 10.3702 4.954 10.3702 4.979C10.3888 5.029 10.4102 5.07833 10.4342 5.127C10.5142 5.315 10.5812 5.50833 10.6352 5.707C10.6752 5.847 10.7362 5.895 11.0352 6.021C11.3352 6.148 11.3812 6.164 11.4832 6.184C11.6165 6.20533 11.7498 6.20567 11.8832 6.187C11.9647 6.16499 12.0416 6.1294 12.1102 6.08L12.1452 6.051L12.0672 5.816ZM12.0672 5.816C12.0378 5.72486 12.0051 5.6348 11.9692 5.546C11.916 5.48448 11.8567 5.42853 11.7922 5.379C11.7042 5.308 11.5382 5.17 11.4222 5.073C11.1242 4.82 10.9962 4.748 10.8302 4.736C10.7728 4.73104 10.7151 4.74032 10.6622 4.763C10.6073 4.78494 10.5544 4.81171 10.5042 4.843C10.4362 4.89 10.3702 4.954 10.3702 4.979C10.3888 5.029 10.4102 5.07833 10.4342 5.127C10.5142 5.315 10.5812 5.50833 10.6352 5.707C10.6752 5.847 10.7362 5.895 11.0352 6.021C11.3352 6.148 11.3812 6.164 11.4832 6.184C11.6165 6.20533 11.7498 6.20567 11.8832 6.187C11.9647 6.16499 12.0416 6.1294 12.1102 6.08L12.1452 6.051L12.0672 5.816ZM12.0672 5.816C12.0378 5.72486 12.0051 5.6348 11.9692 5.546C11.916 5.48448 11.8567 5.42853 11.7922 5.379C11.7042 5.308 11.5382 5.17 11.4222 5.073C11.1242 4.82 10.9962 4.748 10.8302 4.736C10.7728 4.73104 10.7151 4.74032 10.6622 4.763C10.6073 4.78494 10.5544 4.81171 10.5042 4.843C10.4362 4.89 10.3702 4.954 10.3702 4.979C10.3888 5.029 10.4102 5.07833 10.4342 5.127C10.5142 5.315 10.5812 5.50833 10.6352 5.707C10.6752 5.847 10.7362 5.895 11.0352 6.021C11.3352 6.148 11.3812 6.164 11.4832 6.184C11.6165 6.20533 11.7498 6.20567 11.8832 6.187C11.9647 6.16499 12.0416 6.1294 12.1102 6.08L12.1452 6.051L12.0672 5.816ZM12.0672 5.816C12.0378 5.72486 12.0051 5.6348 11.9692 5.546C11.916 5.48448 11.8567 5.42853 11.7922 5.379C11.7042 5.308 11.5382 5.17 11.4222 5.073C11.1242 4.82 10.9962 4.748 10.8302 4.736C10.7728 4.73104 10.7151 4.74032 10.6622 4.763C10.6073 4.78494 10.5544 4.81171 10.5042 4.843C10.4362 4.89 10.3702 4.954 10.3702 4.979C10.3888 5.029 10.4102 5.07833 10.4342 5.127C10.5142 5.315 10.5812 5.50833 10.6352 5.707C10.6752 5.847 10.7362 5.895 11.0352 6.021C11.3352 6.148 11.3812 6.164 11.4832 6.184C11.6165 6.20533 11.7498 6.20567 11.8832 6.187C11.9647 6.16499 12.0416 6.1294 12.1102 6.08L12.1452 6.051L12.0672 5.816ZM12.0672 5.816C12.0378 5.72486 12.0051 5.6348 11.9692 5.546C11.916 5.48448 11.8567 5.42853 11.7922 5.379C11.7042 5.308 11.5382 5.17 11.4222 5.073C11.1242 4.82 10.9962 4.748 10.8302 4.736C10.7728 4.73104 10.7151 4.74032 10.6622 4.763C10.6073 4.78494 10.5544 4.81171 10.5042 4.843C10.4362 4.89 10.3702 4.954 10.3702 4.979C10.3888 5.029 10.4102 5.07833 10.4342 5.127C10.5142 5.315 10.5812 5.50833 10.6352 5.707C10.6752 5.847 10.7362 5.895 11.0352 6.021C11.3352 6.148 11.3812 6.164 11.4832 6.184C11.6165 6.20533 11.7498 6.20567 11.8832 6.187C11.9647 6.16499 12.0416 6.1294 12.1102 6.08L12.1452 6.051L12.0672 5.816ZM12.0672 5.816C12.0378 5.72486 12.0051 5.6348 11.9692 5.546C11.916 5.48448 11.8567 5.42853 11.7922 5.379C11.7042 5.308 11.5382 5.17 11.4222 5.073C11.1242 4.82 10.9962 4.748 10.8302 4.736C10.7728 4.73104 10.7151 4.74032 10.6622 4.763C10.6073 4.78494 10.5544 4.81171 10.5042 4.843C10.4362 4.89 10.3702 4.954 10.3702 4.979C10.3888 5.029 10.4102 5.07833 10.4342 5.127C10.5142 5.315 10.5812 5.50833 10.6352 5.707C10.6752 5.847 10.7362 5.895 11.0352 6.021C11.3352 6.148 11.3812 6.164 11.4832 6.184C11.6165 6.20533 11.7498 6.20567 11.8832 6.187C11.9647 6.16499 12.0416 6.1294 12.1102 6.08L12.1452 6.051L12.0672 5.816ZM12.0672 5.816C12.0378 5.72486 12.0051 5.6348 11.9692 5.546C11.916 5.48448 11.8567 5.42853 11.7922 5.379C11.7042 5.308 11.5382 5.17 11.4222 5.073C11.1242 4.82 10.9962 4.748 10.8302 4.736C10.7728 4.73104 10.7151 4.74032 10.6622 4.763C10.6073 4.78494 10.5544 4.81171 10.5042 4.843C10.4362 4.89 10.3702 4.954 10.3702 4.979C10.3888 5.029 10.4102 5.07833 10.4342 5.127C10.5142 5.315 10.5812 5.50833 10.6352 5.707C10.6752 5.847 10.7362 5.895 11.0352 6.021C11.3352 6.148 11.3812 6.164 11.4832 6.184C11.6165 6.20533 11.7498 6.20567 11.8832 6.187C11.9647 6.16499 12.0416 6.1294 12.1102 6.08L12.1452 6.051L12.0672 5.816ZM12.0672 5.816C12.0378 5.72486 12.0051 5.6348 11.9692 5.546C11.916 5.48448 11.8567 5.42853 11.7922 5.379C11.7042 5.308 11.5382 5.17 11.4222 5.073C11.1242 4.82 10.9962 4.748 10.8302 4.736C10.7728 4.73104 10.7151 4.74032 10.6622 4.763C10.6073 4.78494 10.5544 4.81171 10.5042 4.843C10.4362 4.89 10.3702 4.954 10.3702 4.979C10.3888 5.029 10.4102 5.07833 10.4342 5.127C10.5142 5.315 10.5812 5.50833 10.6352 5.707C10.6752 5.847 10.7362 5.895 11.0352 6.021C11.3352 6.148 11.3812 6.164 11.4832 6.184C11.6165 6.20533 11.7498 6.20567 11.8832 6.187C11.9647 6.16499 12.0416 6.1294 12.1102 6.08L12.1452 6.051L12.0672 5.816ZM12.0672 5.816C12.0378 5.72486 12.0051 5.6348 11.9692 5.546C11.916 5.48448 11.8567 5.42853 11.7922 5.379C11.7042 5.308 11.5382 5.17 11.4222 5.073C11.1242 4.82 10.9962 4.748 10.8302 4.736C10.7728 4.73104 10.7151 4.74032 10.6622 4.763C10.6073 4.78494 10.5544 4.81171 10.5042 4.843C10.4362 4.89 10.3702 4.954 10.3702 4.979C10.3888 5.029 10.4102 5.07833 10.4342 5.127C10.5142 5.315 10.5812 5.50833 10.6352 5.707C10.6752 5.847 10.7362 5.895 11.0352 6.021C11.3352 6.148 11.3812 6.164 11.4832 6.184C11.6165 6.20533 11.7498 6.20567 11.8832 6.187C11.9647 6.16499 12.0416 6.1294 12.1102 6.08L12.1452 6.051L12.0672 5.816ZM12.0672 5.816C12.0378 5.72486 12.0051 5.6348 11.9692 5.546C11.916 5.48448 11.8567 5.42853 11.7922 5.379C11.7042 5.308 11.5382 5.17 11.4222 5.073C11.1242 4.82 10.9962 4.748 10.8302 4.736C10.7728 4.73104 10.7151 4.74032 10.6622 4.763C10.6073 4.78494 10.5544 4.81171 10.5042 4.843C10.4362 4.89 10.3702 4.954 10.3702 4.979C10.3888 5.029 10.4102 5.07833 10.4342 5.127C10.5142 5.315 10.5812 5.50833 10.6352 5.707C10.6752 5.847 10.7362 5.895 11.0352 6.021C11.3352 6.148 11.3812 6.164 11.4832 6.184C11.6165 6.20533 11.7498 6.20567 11.8832 6.187C11.9647 6.16499 12.0416 6.1294 12.1102 6.08L12.1452 6.051L12.0672 5.816ZM12.0672 5.816C12.0378 5.72486 12.0051 5.6348 11.9692 5.546C11.916 5.48448 11.8567 5.42853 11.7922 5.379C11.7042 5.308 11.5382 5.17 11.4222 5.073C11.1242 4.82 10.9962 4.748 10.8302 4.736C10.7728 4.73104 10.7151 4.74032 10.6622 4.763C10.6073 4.78494 10.5544 4.81171 10.5042 4.843C10.4362 4.89 10.3702 4.954 10.3702 4.979C10.3888 5.029 10.4102 5.07833 10.4342 5.127C10.5142 5.315 10.5812 5.50833 10.6352 5.707C10.6752 5.847 10.7362 5.895 11.0352 6.021C11.3352 6.148 11.3812 6.164 11.4832 6.184C11.6165 6.20533 11.7498 6.20567 11.8832 6.187C11.9647 6.16499 12.0416 6.1294 12.1102 6.08L12.1452 6.051L12.0672 5.816Z" fill="white"/>
</svg>
