<svg width="14" height="14" viewBox="0 0 14 14" fill="none" xmlns="http://www.w3.org/2000/svg">
<path d="M8 1.71665C8 1.01765 7.129 0.698655 6.6775 1.23165L4.6345 3.64665C4.54062 3.75744 4.42373 3.84646 4.29196 3.9075C4.1602 3.96855 4.01672 4.00017 3.8715 4.00015H2C1.46957 4.00015 0.960859 4.21087 0.585786 4.58594C0.210714 4.96101 0 5.46972 0 6.00015V8.00015C0 8.53059 0.210714 9.0393 0.585786 9.41437C0.960859 9.78944 1.46957 10.0002 2 10.0002H3.8715C4.01676 10.0002 4.16026 10.0319 4.29203 10.093C4.4238 10.1542 4.54066 10.2433 4.6345 10.3542L6.6775 12.7687C7.1285 13.3017 8 12.9827 8 12.2837V1.71665ZM9.7165 3.58815C9.77063 3.55093 9.83156 3.52475 9.89582 3.51108C9.96007 3.49742 10.0264 3.49656 10.091 3.50854C10.1556 3.52052 10.2172 3.54511 10.2722 3.5809C10.3273 3.6167 10.3748 3.663 10.412 3.71715C11.1445 4.78215 11.531 5.87916 11.531 7.00015C11.531 8.12115 11.1445 9.21815 10.412 10.2837C10.3751 10.3385 10.3277 10.3855 10.2726 10.4219C10.2174 10.4583 10.1556 10.4834 10.0907 10.4957C10.0257 10.5081 9.95902 10.5075 9.89435 10.4939C9.82967 10.4803 9.76834 10.454 9.71388 10.4166C9.65942 10.3791 9.61293 10.3313 9.57708 10.2758C9.54124 10.2202 9.51675 10.1582 9.50505 10.0931C9.49334 10.0281 9.49465 9.96137 9.50889 9.89684C9.52312 9.8323 9.55001 9.77123 9.588 9.71715C10.2305 8.78215 10.5315 7.87916 10.5315 7.00015C10.5315 6.12115 10.2305 5.21815 9.588 4.28365C9.51299 4.17437 9.48444 4.03978 9.50863 3.90945C9.53282 3.77913 9.60777 3.66374 9.717 3.58865M11.8455 1.63865C11.798 1.59335 11.742 1.55785 11.6807 1.53418C11.6194 1.51052 11.5541 1.49915 11.4885 1.50073C11.4228 1.50231 11.3581 1.5168 11.2981 1.54338C11.238 1.56997 11.1838 1.60812 11.1385 1.65565C11.0932 1.70319 11.0577 1.75919 11.034 1.82045C11.0104 1.88171 10.999 1.94702 11.0006 2.01268C11.0022 2.07833 11.0166 2.14302 11.0432 2.20307C11.0698 2.26312 11.108 2.31735 11.1555 2.36265C12.349 3.49915 12.9695 5.23215 12.9695 7.00065C12.9695 8.76915 12.349 10.5022 11.1555 11.6387C11.108 11.684 11.0698 11.7382 11.0432 11.7982C11.0166 11.8583 11.0022 11.923 11.0006 11.9886C10.999 12.0543 11.0104 12.1196 11.034 12.1809C11.0577 12.2421 11.0932 12.2981 11.1385 12.3457C11.1838 12.3932 11.238 12.4313 11.2981 12.4579C11.3581 12.4845 11.4228 12.499 11.4885 12.5006C11.5541 12.5022 11.6194 12.4908 11.6807 12.4671C11.742 12.4435 11.798 12.408 11.8455 12.3627C13.277 10.9992 13.969 8.98215 13.969 7.00065C13.969 5.01915 13.277 3.00165 11.845 1.63815" fill="white"/>
</svg>
