<svg width="20" height="20" viewBox="0 0 20 20" fill="none" xmlns="http://www.w3.org/2000/svg">
<mask id="mask0_467_49219" style="mask-type:luminance" maskUnits="userSpaceOnUse" x="0" y="0" width="20" height="20">
<path d="M0 0H20V20H0V0Z" fill="white"/>
</mask>
<g mask="url(#mask0_467_49219)">
<path d="M20 10C20 4.477 15.523 0 10 0C4.477 0 0 4.477 0 10C0 15.523 4.477 20 10 20C15.523 20 20 15.523 20 10Z" fill="black"/>
<path d="M7.44701 6.94041L4.83301 4.81741L5.95901 3.91941L7.44701 6.94041ZM8.44301 6.36541L6.57101 3.56641L7.91201 3.04041L8.44301 6.36541ZM9.56401 6.11041L8.60001 2.88241L10.036 2.77441L9.56401 6.11041ZM10.709 6.19541L10.739 2.82841L12.143 3.14841L10.709 6.19541ZM11.78 6.61541L12.8 3.40641L14.048 4.12641L11.78 6.61541ZM12.678 7.33141L14.598 4.56641L15.578 5.62241L12.678 7.33141ZM13.326 8.28241L15.977 6.20641L16.602 7.50341L13.326 8.28241ZM13.664 9.38041L16.809 8.17841L17.024 9.60241L13.664 9.38041ZM13.664 10.5304L17.024 10.3074L16.809 11.7324L13.664 10.5304ZM13.326 11.6274L16.602 12.4054L15.977 13.7034L13.326 11.6274ZM12.678 12.5774L15.578 14.2874L14.598 15.3424L12.678 12.5774ZM11.78 13.2944L14.048 15.7824L12.8 16.5024L11.78 13.2944ZM10.709 13.7144L12.143 16.7604L10.739 17.0804L10.709 13.7144ZM9.56401 13.8004L10.036 17.1334L8.60001 17.0254L9.56401 13.8004ZM8.44301 13.5444L7.91301 16.8694L6.57101 16.3434L8.44301 13.5444ZM7.44801 12.9704L5.96001 15.9904L4.83401 15.0924L7.44801 12.9704ZM9.62301 9.02441H8.91401V9.73241H9.62301V9.02441Z" fill="white"/>
<path d="M9.62183 9.02418L8.38183 7.78418L7.67383 8.49218L8.91383 9.73218L9.62183 9.02418Z" fill="white"/>
<path d="M8.38183 7.78418H7.67383V8.49218H8.38183V7.78418ZM10.1528 9.02418H10.8608V9.73218H10.1528V9.02418Z" fill="white"/>
<path d="M10.1538 9.02418L11.3938 7.78418L12.1028 8.49218L10.8628 9.73218L10.1538 9.02418Z" fill="white"/>
<path d="M11.3931 7.78418H12.1021V8.49218H11.3931V7.78418ZM9.62306 10.9722H8.91406V10.2642H9.62306V10.9722Z" fill="white"/>
<path d="M9.62183 10.9717L8.38183 12.2117L7.67383 11.5037L8.91383 10.2637L9.62183 10.9717Z" fill="white"/>
<path d="M8.38183 12.2117H7.67383V11.5027H8.38183V12.2117ZM10.1528 10.9717H10.8608V10.2637H10.1528V10.9717Z" fill="white"/>
<path d="M10.1538 10.9717L11.3938 12.2117L12.1028 11.5037L10.8628 10.2637L10.1538 10.9717Z" fill="white"/>
<path d="M11.3931 12.2119H12.1021V11.5029H11.3931V12.2119Z" fill="white"/>
</g>
</svg>
